<svg width="20px" height="20px" viewBox="0 0 20 20" version="1.1" xmlns="http://www.w3.org/2000/svg" xmlns:xlink="http://www.w3.org/1999/xlink">
    <g id="Page-1" stroke="none" stroke-width="1" fill="none" fill-rule="evenodd">
        <g id="plus" fill="#4A4A4A" fill-rule="nonzero">
            <path d="M8.28179688,0.452851563 L8.28179688,8.51183594 L0.452851563,8.51183594 C0.203320313,8.51273437 0.00087890625,8.71517578 5.68434189e-14,8.9646875 L5.68434189e-14,11.265332 C0.00087890625,11.5148633 0.203339844,11.7173047 0.452851563,11.7181836 L8.28179688,11.7181836 L8.28179688,19.5471289 C8.28269531,19.7966602 8.48513672,19.9991016 8.73464844,19.9999805 L11.265332,19.9999805 C11.5148633,19.9991016 11.7173047,19.7966406 11.7181836,19.5471289 L11.7181836,11.7181836 L19.5471289,11.7181836 C19.7966602,11.7172852 19.9991016,11.5148438 19.9999805,11.265332 L19.9999805,8.9646875 C19.9991016,8.71515625 19.7966406,8.51271484 19.5471289,8.51183594 L11.7181836,8.51183594 L11.7181836,0.452851562 C11.7173047,0.203320312 11.5148438,0.00087890625 11.265332,0 L8.73464844,0 C8.45851563,0.0230859375 8.28179688,0.219316406 8.28179688,0.452851563 Z" id="Shape"></path>
        </g>
    </g>
</svg>
