<!-- Generated by IcoMoon.io -->
<svg version="1.1" xmlns="http://www.w3.org/2000/svg" width="1024" height="1024" viewBox="0 0 1024 1024">
<title></title>
<g id="icomoon-ignore">
</g>
<path fill="#4a4a4a" d="M808.1 736.822l215.9 215.85-71.328 71.328-215.85-215.9c-80.314 64.383-180.211 99.401-283.145 99.255-250.43 0-453.677-203.247-453.677-453.677s203.247-453.677 453.677-453.677c250.43 0 453.677 203.247 453.677 453.677 0.147 102.934-34.872 202.831-99.255 283.145zM706.98 699.419c63.974-65.789 99.702-153.977 99.557-245.742 0-194.98-157.931-352.86-352.861-352.86-194.98 0-352.86 157.88-352.86 352.86 0 194.93 157.88 352.861 352.86 352.861 91.765 0.144 179.953-35.583 245.742-99.557l7.561-7.561z"></path>
</svg>
