<svg width="2699" height="2525" viewBox="0 0 2699 2525" fill="none" xmlns="http://www.w3.org/2000/svg">
<g opacity="0.3" filter="url(#filter0_f_83_177)">
<path d="M659.288 1129.41C761.373 1208.61 846.685 1224.93 975 1255.5C996 1263 1023.14 1283.64 1031.5 1292C1043 1313 1038.95 1306.92 1048.21 1329.1C1065.77 1371.13 1084.86 1407.69 1093.72 1454.11C1107.43 1526 1103.42 1605.69 1127.96 1673.94C1144.49 1719.92 1176.36 1755.66 1209.6 1788.9C1254.18 1833.48 1298.3 1877.57 1352.35 1911.49C1411.33 1948.5 1493.61 1954.74 1567.23 1926.5C1654.03 1893.21 1719.05 1828.7 1782.81 1760.25C1853.79 1684.05 1921.72 1602.74 1965.97 1509.8C2003.05 1431.93 2022.57 1350.8 2043.77 1269.88C2050.77 1243.15 2054.38 1203.11 2073.42 1179.16C2079.69 1171.28 2088.04 1164.91 2094.86 1157.48C2104.41 1147.08 2118.89 1125.87 2119 1115C2119.22 1093 2111.83 1061.24 2088.96 1035.98C2024.95 965.262 1916.18 958.632 1819.03 960.598C1748.65 962.022 1678.86 968.057 1608.04 975.228C1542.75 981.838 1482.62 982.56 1421.99 966.102C1331.87 941.64 1269.43 850.96 1211.85 785.91C1145.9 711.41 1069.96 624.264 969.795 592.845C915.851 575.924 852.944 572.611 795.08 602.326C741.584 629.798 703.045 682.999 671.504 732.367C616.072 819.132 581.054 917.284 580.799 1013.69C580.662 1065.47 623.464 1101.62 659.288 1129.41Z" fill="#5800E7"/>
</g>
<defs>
<filter id="filter0_f_83_177" x="0.79834" y="0.0195312" width="2698.21" height="2524.09" filterUnits="userSpaceOnUse" color-interpolation-filters="sRGB">
<feFlood flood-opacity="0" result="BackgroundImageFix"/>
<feBlend mode="normal" in="SourceGraphic" in2="BackgroundImageFix" result="shape"/>
<feGaussianBlur stdDeviation="290" result="effect1_foregroundBlur_83_177"/>
</filter>
</defs>
</svg>
