<svg width="1600" height="1838" viewBox="0 0 1600 1838" fill="none" xmlns="http://www.w3.org/2000/svg">
<g clip-path="url(#clip0_366_3)">
<rect width="1600" height="1838" fill="#F8F3F0"/>
<rect x="1600" y="3823" width="1600" height="6091" transform="rotate(-180 1600 3823)" fill="#F8F3F0"/>
<path d="M1595 4H4V1443H1595V4Z" stroke="#888888" stroke-miterlimit="10"/>
<path d="M71 4V1443" stroke="#888888" stroke-miterlimit="10"/>
<path d="M136 4V1443" stroke="#888888" stroke-miterlimit="10"/>
<path d="M202 4V1443" stroke="#888888" stroke-miterlimit="10"/>
<path d="M269 4V1443" stroke="#888888" stroke-miterlimit="10"/>
<path d="M336 4V1443" stroke="#888888" stroke-miterlimit="10"/>
<path d="M401 4V1443" stroke="#888888" stroke-miterlimit="10"/>
<path d="M467 4V1443" stroke="#888888" stroke-miterlimit="10"/>
<path d="M534 4V1443" stroke="#888888" stroke-miterlimit="10"/>
<path d="M601 4V1443" stroke="#888888" stroke-miterlimit="10"/>
<path d="M667 4V1443" stroke="#888888" stroke-miterlimit="10"/>
<path d="M732 4V1443" stroke="#888888" stroke-miterlimit="10"/>
<path d="M799 4V1443" stroke="#888888" stroke-miterlimit="10"/>
<path d="M866 4V1443" stroke="#888888" stroke-miterlimit="10"/>
<path d="M932 4V1443" stroke="#888888" stroke-miterlimit="10"/>
<path d="M999 4V1443" stroke="#888888" stroke-miterlimit="10"/>
<path d="M1064 4V1443" stroke="#888888" stroke-miterlimit="10"/>
<path d="M1131 4V1443" stroke="#888888" stroke-miterlimit="10"/>
<path d="M1197 4V1443" stroke="#888888" stroke-miterlimit="10"/>
<path d="M1264 4V1443" stroke="#888888" stroke-miterlimit="10"/>
<path d="M1330 4V1443" stroke="#888888" stroke-miterlimit="10"/>
<path d="M1396 4V1443" stroke="#888888" stroke-miterlimit="10"/>
<path d="M1462 4V1443" stroke="#888888" stroke-miterlimit="10"/>
<path d="M1529 4V1443" stroke="#888888" stroke-miterlimit="10"/>
<path d="M4.03125 1377.17H1595.24" stroke="#888888" stroke-miterlimit="10"/>
<path d="M4.03125 1311.55H1595.24" stroke="#888888" stroke-miterlimit="10"/>
<path d="M4.03125 1245.92H1595.24" stroke="#888888" stroke-miterlimit="10"/>
<path d="M4.03125 1181.54H1595.24" stroke="#888888" stroke-miterlimit="10"/>
<path d="M4.03125 1115.91H1595.24" stroke="#888888" stroke-miterlimit="10"/>
<path d="M4.03125 1050.29H1595.24" stroke="#888888" stroke-miterlimit="10"/>
<path d="M4.03125 984.664H1595.24" stroke="#888888" stroke-miterlimit="10"/>
<path d="M4.03125 919.039H1595.24" stroke="#888888" stroke-miterlimit="10"/>
<path d="M4.03125 854.654H1595.24" stroke="#888888" stroke-miterlimit="10"/>
<path d="M4.03125 789.025H1595.24" stroke="#888888" stroke-miterlimit="10"/>
<path d="M4.03125 723.404H1595.24" stroke="#888888" stroke-miterlimit="10"/>
<path d="M4.03125 657.775H1595.24" stroke="#888888" stroke-miterlimit="10"/>
<path d="M4.03125 592.154H1595.24" stroke="#888888" stroke-miterlimit="10"/>
<path d="M4.03125 527.766H1595.24" stroke="#888888" stroke-miterlimit="10"/>
<path d="M4.03125 462.145H1595.24" stroke="#888888" stroke-miterlimit="10"/>
<path d="M4.03125 396.523H1595.24" stroke="#888888" stroke-miterlimit="10"/>
<path d="M4.03125 330.895H1595.24" stroke="#888888" stroke-miterlimit="10"/>
<path d="M4.03125 265.273H1595.24" stroke="#888888" stroke-miterlimit="10"/>
<path d="M4.03125 200.885H1595.24" stroke="#888888" stroke-miterlimit="10"/>
<path d="M4.03125 135.26H1595.24" stroke="#888888" stroke-miterlimit="10"/>
<path d="M4.03125 69.6309H1595.24" stroke="#888888" stroke-miterlimit="10"/>
<path d="M1595 1442.59H4V1834H1595V1442.59Z" stroke="#888888" stroke-miterlimit="10"/>
<path d="M71 1442.59V1834" stroke="#888888" stroke-miterlimit="10"/>
<path d="M136 1442.59V1834" stroke="#888888" stroke-miterlimit="10"/>
<path d="M202 1442.59V1834" stroke="#888888" stroke-miterlimit="10"/>
<path d="M269 1442.59V1834" stroke="#888888" stroke-miterlimit="10"/>
<path d="M336 1442.59V1834" stroke="#888888" stroke-miterlimit="10"/>
<path d="M401 1442.59V1834" stroke="#888888" stroke-miterlimit="10"/>
<path d="M467 1442.59V1834" stroke="#888888" stroke-miterlimit="10"/>
<path d="M534 1442.59V1834" stroke="#888888" stroke-miterlimit="10"/>
<path d="M601 1442.59V1834" stroke="#888888" stroke-miterlimit="10"/>
<path d="M667 1442.59V1834" stroke="#888888" stroke-miterlimit="10"/>
<path d="M732 1442.59V1834" stroke="#888888" stroke-miterlimit="10"/>
<path d="M799 1442.59V1834" stroke="#888888" stroke-miterlimit="10"/>
<path d="M866 1442.59V1834" stroke="#888888" stroke-miterlimit="10"/>
<path d="M932 1442.59V1834" stroke="#888888" stroke-miterlimit="10"/>
<path d="M999 1442.59V1834" stroke="#888888" stroke-miterlimit="10"/>
<path d="M1064 1442.59V1834" stroke="#888888" stroke-miterlimit="10"/>
<path d="M1131 1442.59V1834" stroke="#888888" stroke-miterlimit="10"/>
<path d="M1197 1442.59V1834" stroke="#888888" stroke-miterlimit="10"/>
<path d="M1264 1442.59V1834" stroke="#888888" stroke-miterlimit="10"/>
<path d="M1330 1442.59V1834" stroke="#888888" stroke-miterlimit="10"/>
<path d="M1396 1442.59V1834" stroke="#888888" stroke-miterlimit="10"/>
<path d="M1462 1442.59V1834" stroke="#888888" stroke-miterlimit="10"/>
<path d="M1529 1442.59V1834" stroke="#888888" stroke-miterlimit="10"/>
<path d="M4.03125 1769.48H1595.24" stroke="#888888" stroke-miterlimit="10"/>
<path d="M4.03125 1703.85H1595.24" stroke="#888888" stroke-miterlimit="10"/>
<path d="M4.03125 1638.23H1595.24" stroke="#888888" stroke-miterlimit="10"/>
<path d="M4.03125 1572.6H1595.24" stroke="#888888" stroke-miterlimit="10"/>
<path d="M4.03125 1508.21H1595.24" stroke="#888888" stroke-miterlimit="10"/>
</g>
<defs>
<clipPath id="clip0_366_3">
<rect width="1600" height="1838" fill="white"/>
</clipPath>
</defs>
</svg>
