<svg width="546" height="187" viewBox="0 0 546 187" fill="none" xmlns="http://www.w3.org/2000/svg">
<path d="M544.843 0.166016V18.151C544.776 28.6626 539.543 39.1521 529.142 45.1619L499.448 62.3485L299.217 178.264C283.716 187.224 264.622 187.268 249.099 178.353L16.7791 45.1175C13.2974 43.1216 10.3923 40.6157 8.06379 37.7771C7.77549 37.4445 7.48721 37.0897 7.24327 36.7348C6.86627 36.247 6.51145 35.7591 6.20098 35.249C5.95704 34.9164 5.75743 34.5837 5.55785 34.2511C5.44696 34.0959 5.33612 33.9184 5.24741 33.7189C5.00347 33.3419 4.80387 32.9649 4.60428 32.5657C4.33816 32.1 4.09418 31.6121 3.87242 31.102C3.69501 30.7251 3.53977 30.348 3.38454 29.9711C3.27366 29.7049 3.16279 29.4166 3.05191 29.1505C2.8745 28.707 2.71928 28.2635 2.58622 27.8199C2.54187 27.7312 2.51967 27.6425 2.4975 27.5317C2.27573 26.9329 2.12052 26.3341 1.96529 25.7132C1.83223 25.2475 1.72136 24.7818 1.63265 24.2939C1.56613 23.9391 1.4996 23.5843 1.43308 23.2516C1.43308 23.2073 1.41088 23.1629 1.41088 23.1186C1.3 22.5198 1.23343 21.9432 1.1669 21.3666C1.10037 20.7235 1.0339 20.0804 1.01172 19.4373V0.809132C1.01172 1.4966 1.05604 2.18407 1.12257 2.87153C1.16693 3.44812 1.21125 4.00254 1.29995 4.57912C1.36648 5.08918 1.45525 5.57706 1.56613 6.08712C1.72136 7.0407 1.96528 7.99428 2.23139 8.92569C4.36032 16.3104 9.21694 23.0299 16.7791 27.3764L249.099 160.612C264.622 169.505 283.716 169.483 299.217 160.501L484.079 53.5002L529.142 27.4208C536.66 23.0742 541.472 16.3991 543.579 9.05874C544.421 6.15364 544.843 3.15982 544.843 0.166016Z" fill="white" stroke="#888888" stroke-width="2" stroke-miterlimit="10"/>
</svg>
