<svg width="1153" height="362" viewBox="0 0 1153 362" fill="none" xmlns="http://www.w3.org/2000/svg">
<path d="M1151.86 1.02619V18.8116C1151.86 29.3898 1146.63 39.9901 1136.16 46.0442L604.13 354.007C588.629 362.967 569.535 363.011 554.012 354.096L16.8117 45.9998C6.27797 39.9679 1 29.3454 1 18.7229V0.9375C1 3.93131 1.42135 6.92511 2.26405 9.83021C4.39298 17.1928 9.22743 23.9122 16.8117 28.2366L554.012 336.355C569.535 345.248 588.629 345.225 604.13 336.244L1136.16 28.281C1143.68 23.9344 1148.49 17.2593 1150.6 9.91893C1151.44 7.01383 1151.86 4.02 1151.86 1.02619Z" stroke="#888888" stroke-width="2" stroke-miterlimit="10"/>
</svg>
