<svg width="844" height="272" viewBox="0 0 844 272" fill="none" xmlns="http://www.w3.org/2000/svg">
<path d="M842.91 0.330078V18.0043C842.91 28.5163 837.703 39.0282 827.29 45.0445L797.747 62.1237L449.261 263.614C433.839 272.539 414.843 272.561 399.376 263.724L17.597 45.0004C7.64655 39.3147 2.39554 29.4859 1.91016 19.4808V1.32178C1.97635 3.92223 2.39555 6.52267 3.12363 9.03496C5.21962 16.3735 10.0514 23.0509 17.597 27.3703L399.376 246.072C414.843 254.931 433.839 254.887 449.261 245.962L782.457 53.3307L827.29 27.4144C834.769 23.095 839.557 16.4616 841.653 9.16718C842.491 6.28025 842.91 3.30516 842.91 0.330078Z" fill="white" stroke="#888888" stroke-width="2" stroke-miterlimit="10" stroke-dasharray="7.58 7.58"/>
</svg>
