<svg width="3451" height="22" fill="none" xmlns="http://www.w3.org/2000/svg"><path opacity=".55" d="M5.504 16.16c-2.784 0-4.688-2.4-4.688-5.872C.816 6.8 2.72 4.4 5.504 4.4s4.688 2.384 4.688 5.888c0 3.488-1.904 5.872-4.688 5.872Zm0-1.808c1.632 0 2.72-1.648 2.72-4.064 0-2.448-1.072-4.08-2.72-4.08-1.648 0-2.736 1.616-2.736 4.08 0 2.448 1.088 4.064 2.736 4.064Zm10.9531 1.808c-2.784 0-4.688-2.4-4.688-5.872 0-3.488 1.904-5.888 4.688-5.888s4.688 2.384 4.688 5.888c0 3.488-1.904 5.872-4.688 5.872Zm0-1.808c1.632 0 2.72-1.648 2.72-4.064 0-2.448-1.072-4.08-2.72-4.08-1.648 0-2.736 1.616-2.736 4.08 0 2.448 1.088 4.064 2.736 4.064Z" fill="#fff"/><g opacity=".35" fill="#fff"><path d="M40 4.5h1v13h-1zM53 4.5h1v13h-1zM66 4.5h1v13h-1zM79 4.5h1v13h-1zM92 4.5h1v13h-1zM105 4.5h1v13h-1zM118 4.5h1v13h-1zM131 4.5h1v13h-1zM144 4.5h1v13h-1zM157 4.5h1v13h-1zM170 4.5h1v13h-1zM183 4.5h1v13h-1zM196 4.5h1v13h-1zM209 4.5h1v13h-1zM222 4.5h1v13h-1zM235 4.5h1v13h-1zM248 4.5h1v13h-1zM261 4.5h1v13h-1zM274 4.5h1v13h-1zM287 4.5h1v13h-1zM300 4.5h1v13h-1zM313 4.5h1v13h-1zM326 4.5h1v13h-1z"/></g><path opacity=".55" d="M350.504 16.16c-2.784 0-4.688-2.4-4.688-5.872 0-3.488 1.904-5.888 4.688-5.888s4.688 2.384 4.688 5.888c0 3.488-1.904 5.872-4.688 5.872Zm0-1.808c1.632 0 2.72-1.648 2.72-4.064 0-2.448-1.072-4.08-2.72-4.08-1.648 0-2.736 1.616-2.736 4.08 0 2.448 1.088 4.064 2.736 4.064Zm5.314-8.016 2.848-1.776h1.584V16h-1.952V6.8l-2.144 1.376-.336-1.84Z" fill="#fff"/><g opacity=".35" fill="#fff"><path d="M380 4.5h1v13h-1zM393 4.5h1v13h-1zM406 4.5h1v13h-1zM419 4.5h1v13h-1zM432 4.5h1v13h-1zM445 4.5h1v13h-1zM458 4.5h1v13h-1zM471 4.5h1v13h-1zM484 4.5h1v13h-1zM497 4.5h1v13h-1zM510 4.5h1v13h-1zM523 4.5h1v13h-1zM536 4.5h1v13h-1zM549 4.5h1v13h-1zM562 4.5h1v13h-1zM575 4.5h1v13h-1zM588 4.5h1v13h-1zM601 4.5h1v13h-1zM614 4.5h1v13h-1zM627 4.5h1v13h-1zM640 4.5h1v13h-1zM653 4.5h1v13h-1zM666 4.5h1v13h-1z"/></g><path opacity=".55" d="M690.504 16.16c-2.784 0-4.688-2.4-4.688-5.872 0-3.488 1.904-5.888 4.688-5.888s4.688 2.384 4.688 5.888c0 3.488-1.904 5.872-4.688 5.872Zm0-1.808c1.632 0 2.72-1.648 2.72-4.064 0-2.448-1.072-4.08-2.72-4.08-1.648 0-2.736 1.616-2.736 4.08 0 2.448 1.088 4.064 2.736 4.064Zm8.341-.176 5.184.016V16h-7.872v-1.504c1.712-1.456 2.752-2.304 3.952-3.504C701.485 9.6 701.853 8.96 701.853 8c0-1.104-.752-1.808-1.92-1.808-1.296 0-2.08.992-2 2.528l-1.872-.208c-.112-2.368 1.568-4.112 3.904-4.112 2.256 0 3.824 1.472 3.824 3.6 0 1.408-.672 2.592-2.288 4.064-.8.72-1.552 1.328-2.656 2.112Z" fill="#fff"/><g opacity=".35" fill="#fff"><path d="M723 4.5h1v13h-1zM736 4.5h1v13h-1zM749 4.5h1v13h-1zM762 4.5h1v13h-1zM775 4.5h1v13h-1zM788 4.5h1v13h-1zM801 4.5h1v13h-1zM814 4.5h1v13h-1zM827 4.5h1v13h-1zM840 4.5h1v13h-1zM853 4.5h1v13h-1zM866 4.5h1v13h-1zM879 4.5h1v13h-1zM892 4.5h1v13h-1zM905 4.5h1v13h-1zM918 4.5h1v13h-1zM931 4.5h1v13h-1zM944 4.5h1v13h-1zM957 4.5h1v13h-1zM970 4.5h1v13h-1zM983 4.5h1v13h-1zM996 4.5h1v13h-1zM1009 4.5h1v13h-1z"/></g><path opacity=".55" d="M1033.5 16.16c-2.78 0-4.68-2.4-4.68-5.872 0-3.488 1.9-5.888 4.68-5.888 2.79 0 4.69 2.384 4.69 5.888 0 3.488-1.9 5.872-4.69 5.872Zm0-1.808c1.64 0 2.72-1.648 2.72-4.064 0-2.448-1.07-4.08-2.72-4.08-1.64 0-2.73 1.616-2.73 4.08 0 2.448 1.09 4.064 2.73 4.064Zm12.18-4.144c1.45.464 2.2 1.408 2.2 2.72 0 1.904-1.71 3.232-4.19 3.232-2.32 0-4.32-1.6-4.37-3.488l1.8-.304c.19 1.232 1.18 2 2.56 2 1.36 0 2.27-.624 2.27-1.616 0-1.056-.8-1.632-2.31-1.632h-1V9.456h.78c1.31 0 2.19-.688 2.19-1.68s-.72-1.6-1.9-1.6c-1.41 0-2.35.848-2.31 2.096l-1.85-.128c-.03-2.208 1.65-3.744 4.14-3.744 2.23 0 3.84 1.36 3.84 3.216 0 1.184-.69 2.128-1.85 2.592Z" fill="#fff"/><g opacity=".35" fill="#fff"><path d="M1067 4.5h1v13h-1zM1080 4.5h1v13h-1zM1093 4.5h1v13h-1zM1106 4.5h1v13h-1zM1119 4.5h1v13h-1zM1132 4.5h1v13h-1zM1145 4.5h1v13h-1zM1158 4.5h1v13h-1zM1171 4.5h1v13h-1zM1184 4.5h1v13h-1zM1197 4.5h1v13h-1zM1210 4.5h1v13h-1zM1223 4.5h1v13h-1zM1236 4.5h1v13h-1zM1249 4.5h1v13h-1zM1262 4.5h1v13h-1zM1275 4.5h1v13h-1zM1288 4.5h1v13h-1zM1301 4.5h1v13h-1zM1314 4.5h1v13h-1zM1327 4.5h1v13h-1zM1340 4.5h1v13h-1zM1353 4.5h1v13h-1z"/></g><path opacity=".55" d="M1377.5 16.16c-2.78 0-4.68-2.4-4.68-5.872 0-3.488 1.9-5.888 4.68-5.888 2.79 0 4.69 2.384 4.69 5.888 0 3.488-1.9 5.872-4.69 5.872Zm0-1.808c1.64 0 2.72-1.648 2.72-4.064 0-2.448-1.07-4.08-2.72-4.08-1.64 0-2.73 1.616-2.73 4.08 0 2.448 1.09 4.064 2.73 4.064Zm13.32-2.704h1.64v1.68h-1.64V16h-1.88v-2.672h-5.56V11.92l5.06-7.36h2.38v7.088Zm-1.88-4.96-3.4 4.96h3.4v-4.96Z" fill="#fff"/><g opacity=".35" fill="#fff"><path d="M1411 4.5h1v13h-1zM1424 4.5h1v13h-1zM1437 4.5h1v13h-1zM1450 4.5h1v13h-1zM1463 4.5h1v13h-1zM1476 4.5h1v13h-1zM1489 4.5h1v13h-1zM1502 4.5h1v13h-1zM1515 4.5h1v13h-1zM1528 4.5h1v13h-1zM1541 4.5h1v13h-1zM1554 4.5h1v13h-1zM1567 4.5h1v13h-1zM1580 4.5h1v13h-1zM1593 4.5h1v13h-1zM1606 4.5h1v13h-1zM1619 4.5h1v13h-1zM1632 4.5h1v13h-1zM1645 4.5h1v13h-1zM1658 4.5h1v13h-1zM1671 4.5h1v13h-1zM1684 4.5h1v13h-1zM1697 4.5h1v13h-1z"/></g><path opacity=".55" d="M1721.5 16.16c-2.78 0-4.68-2.4-4.68-5.872 0-3.488 1.9-5.888 4.68-5.888 2.79 0 4.69 2.384 4.69 5.888 0 3.488-1.9 5.872-4.69 5.872Zm0-1.808c1.64 0 2.72-1.648 2.72-4.064 0-2.448-1.07-4.08-2.72-4.08-1.64 0-2.73 1.616-2.73 4.08 0 2.448 1.09 4.064 2.73 4.064Zm10.49-6.192c2.31 0 3.97 1.648 3.97 3.92 0 2.384-1.78 4.08-4.26 4.08-2.28 0-4.09-1.424-4.27-3.376l1.81-.384c.14 1.264 1.06 1.968 2.5 1.968 1.36 0 2.33-.96 2.33-2.288 0-1.328-.94-2.256-2.32-2.256-.96 0-1.81.4-2.46 1.12l-1.41-.592.66-5.792h6.88v1.808h-5.22l-.27 2.352c.56-.352 1.31-.56 2.06-.56Z" fill="#fff"/><g opacity=".35" fill="#fff"><path d="M1755 4.5h1v13h-1zM1768 4.5h1v13h-1zM1781 4.5h1v13h-1zM1794 4.5h1v13h-1zM1807 4.5h1v13h-1zM1820 4.5h1v13h-1zM1833 4.5h1v13h-1zM1846 4.5h1v13h-1zM1859 4.5h1v13h-1zM1872 4.5h1v13h-1zM1885 4.5h1v13h-1zM1898 4.5h1v13h-1zM1911 4.5h1v13h-1zM1924 4.5h1v13h-1zM1937 4.5h1v13h-1zM1950 4.5h1v13h-1zM1963 4.5h1v13h-1zM1976 4.5h1v13h-1zM1989 4.5h1v13h-1zM2002 4.5h1v13h-1zM2015 4.5h1v13h-1zM2028 4.5h1v13h-1zM2041 4.5h1v13h-1z"/></g><path opacity=".55" d="M2065.5 16.16c-2.78 0-4.68-2.4-4.68-5.872 0-3.488 1.9-5.888 4.68-5.888 2.79 0 4.69 2.384 4.69 5.888 0 3.488-1.9 5.872-4.69 5.872Zm0-1.808c1.64 0 2.72-1.648 2.72-4.064 0-2.448-1.07-4.08-2.72-4.08-1.64 0-2.73 1.616-2.73 4.08 0 2.448 1.09 4.064 2.73 4.064Zm11.12-5.936c2.13 0 3.63 1.536 3.63 3.712 0 2.288-1.78 4.032-4.11 4.032-2.75 0-4.5-2.304-4.5-5.92s1.73-5.84 4.55-5.84c1.85 0 3.4 1.088 3.87 2.656l-1.71.544c-.34-.928-1.09-1.44-2.13-1.44-1.75 0-2.72 1.44-2.74 4.096.64-1.184 1.75-1.84 3.14-1.84Zm-.45 5.968c1.25 0 2.13-.896 2.13-2.144 0-1.296-.79-2.08-2.07-2.08-1.13 0-2.08.688-2.35 1.712-.09.336-.06.656.1 1.008.41.976 1.21 1.504 2.19 1.504Z" fill="#fff"/><g opacity=".35" fill="#fff"><path d="M2099 4.5h1v13h-1zM2112 4.5h1v13h-1zM2125 4.5h1v13h-1zM2138 4.5h1v13h-1zM2151 4.5h1v13h-1zM2164 4.5h1v13h-1zM2177 4.5h1v13h-1zM2190 4.5h1v13h-1zM2203 4.5h1v13h-1zM2216 4.5h1v13h-1zM2229 4.5h1v13h-1zM2242 4.5h1v13h-1zM2255 4.5h1v13h-1zM2268 4.5h1v13h-1zM2281 4.5h1v13h-1zM2294 4.5h1v13h-1zM2307 4.5h1v13h-1zM2320 4.5h1v13h-1zM2333 4.5h1v13h-1zM2346 4.5h1v13h-1zM2359 4.5h1v13h-1zM2372 4.5h1v13h-1zM2385 4.5h1v13h-1z"/></g><path opacity=".55" d="M2409.5 16.16c-2.78 0-4.68-2.4-4.68-5.872 0-3.488 1.9-5.888 4.68-5.888 2.79 0 4.69 2.384 4.69 5.888 0 3.488-1.9 5.872-4.69 5.872Zm0-1.808c1.64 0 2.72-1.648 2.72-4.064 0-2.448-1.07-4.08-2.72-4.08-1.64 0-2.73 1.616-2.73 4.08 0 2.448 1.09 4.064 2.73 4.064Zm5.14-7.984V4.56h7.74v1.424l-4 10.016h-2.02l3.89-9.632h-5.61Z" fill="#fff"/><g opacity=".35" fill="#fff"><path d="M2441 4.5h1v13h-1zM2454 4.5h1v13h-1zM2467 4.5h1v13h-1zM2480 4.5h1v13h-1zM2493 4.5h1v13h-1zM2506 4.5h1v13h-1zM2519 4.5h1v13h-1zM2532 4.5h1v13h-1zM2545 4.5h1v13h-1zM2558 4.5h1v13h-1zM2571 4.5h1v13h-1zM2584 4.5h1v13h-1zM2597 4.5h1v13h-1zM2610 4.5h1v13h-1zM2623 4.5h1v13h-1zM2636 4.5h1v13h-1zM2649 4.5h1v13h-1zM2662 4.5h1v13h-1zM2675 4.5h1v13h-1zM2688 4.5h1v13h-1zM2701 4.5h1v13h-1zM2714 4.5h1v13h-1zM2727 4.5h1v13h-1z"/></g><path opacity=".55" d="M2751.5 16.16c-2.78 0-4.68-2.4-4.68-5.872 0-3.488 1.9-5.888 4.68-5.888 2.79 0 4.69 2.384 4.69 5.888 0 3.488-1.9 5.872-4.69 5.872Zm0-1.808c1.64 0 2.72-1.648 2.72-4.064 0-2.448-1.07-4.08-2.72-4.08-1.64 0-2.73 1.616-2.73 4.08 0 2.448 1.09 4.064 2.73 4.064Zm12.29-4.272c1.39.448 2.22 1.456 2.22 2.816 0 1.936-1.73 3.264-4.26 3.264-2.52 0-4.27-1.328-4.27-3.264 0-1.36.83-2.368 2.23-2.816-1.16-.592-1.76-1.488-1.76-2.624 0-1.776 1.6-3.056 3.8-3.056 2.2 0 3.8 1.28 3.8 3.056 0 1.136-.61 2.032-1.76 2.624Zm-2.04-3.936c-1.15 0-1.88.608-1.88 1.568 0 .96.8 1.664 1.88 1.664 1.08 0 1.88-.704 1.88-1.664s-.74-1.568-1.88-1.568Zm0 8.256c1.44 0 2.31-.624 2.31-1.68 0-1.04-.85-1.648-2.31-1.648-1.47 0-2.32.608-2.32 1.648 0 1.056.87 1.68 2.32 1.68Z" fill="#fff"/><g opacity=".35" fill="#fff"><path d="M2785 4.5h1v13h-1zM2798 4.5h1v13h-1zM2811 4.5h1v13h-1zM2824 4.5h1v13h-1zM2837 4.5h1v13h-1zM2850 4.5h1v13h-1zM2863 4.5h1v13h-1zM2876 4.5h1v13h-1zM2889 4.5h1v13h-1zM2902 4.5h1v13h-1zM2915 4.5h1v13h-1zM2928 4.5h1v13h-1zM2941 4.5h1v13h-1zM2954 4.5h1v13h-1zM2967 4.5h1v13h-1zM2980 4.5h1v13h-1zM2993 4.5h1v13h-1zM3006 4.5h1v13h-1zM3019 4.5h1v13h-1zM3032 4.5h1v13h-1zM3045 4.5h1v13h-1zM3058 4.5h1v13h-1zM3071 4.5h1v13h-1z"/></g><path opacity=".55" d="M3095.5 16.16c-2.78 0-4.68-2.4-4.68-5.872 0-3.488 1.9-5.888 4.68-5.888 2.79 0 4.69 2.384 4.69 5.888 0 3.488-1.9 5.872-4.69 5.872Zm0-1.808c1.64 0 2.72-1.648 2.72-4.064 0-2.448-1.07-4.08-2.72-4.08-1.64 0-2.73 1.616-2.73 4.08 0 2.448 1.09 4.064 2.73 4.064Zm10.24-9.952c2.75 0 4.49 2.304 4.49 5.92s-1.73 5.84-4.54 5.84c-1.86 0-3.41-1.088-3.87-2.656l1.71-.544c.33.928 1.09 1.44 2.13 1.44 1.74 0 2.72-1.44 2.73-4.096-.64 1.184-1.74 1.84-3.13 1.84-2.13 0-3.64-1.536-3.64-3.712 0-2.288 1.78-4.032 4.12-4.032Zm2.25 4.288c.1-.336.07-.656-.09-1.008-.42-.976-1.22-1.504-2.2-1.504-1.24 0-2.12.896-2.12 2.144 0 1.296.78 2.08 2.06 2.08 1.14 0 2.08-.688 2.35-1.712Z" fill="#fff"/><g opacity=".35" fill="#fff"><path d="M3129 4.5h1v13h-1zM3142 4.5h1v13h-1zM3155 4.5h1v13h-1zM3168 4.5h1v13h-1zM3181 4.5h1v13h-1zM3194 4.5h1v13h-1zM3207 4.5h1v13h-1zM3220 4.5h1v13h-1zM3233 4.5h1v13h-1zM3246 4.5h1v13h-1zM3259 4.5h1v13h-1zM3272 4.5h1v13h-1zM3285 4.5h1v13h-1zM3298 4.5h1v13h-1zM3311 4.5h1v13h-1zM3324 4.5h1v13h-1zM3337 4.5h1v13h-1zM3350 4.5h1v13h-1zM3363 4.5h1v13h-1zM3376 4.5h1v13h-1zM3389 4.5h1v13h-1zM3402 4.5h1v13h-1zM3415 4.5h1v13h-1z"/></g><path opacity=".55" d="m3434.24 6.336 2.85-1.776h1.58V16h-1.95V6.8l-2.14 1.376-.34-1.84Zm10.92 9.824c-2.78 0-4.69-2.4-4.69-5.872 0-3.488 1.91-5.888 4.69-5.888 2.78 0 4.69 2.384 4.69 5.888 0 3.488-1.91 5.872-4.69 5.872Zm0-1.808c1.63 0 2.72-1.648 2.72-4.064 0-2.448-1.07-4.08-2.72-4.08-1.65 0-2.74 1.616-2.74 4.08 0 2.448 1.09 4.064 2.74 4.064Z" fill="#fff"/></svg>