<svg width="1600" height="1000" fill="none" xmlns="http://www.w3.org/2000/svg"><g clip-path="url(#a)"><circle cx="42.3502" cy="959.61" r="2.29552" transform="rotate(-90 42.3502 959.61)" fill="#5A4D70"/><circle cx="88.2604" cy="959.61" r="2.29552" transform="rotate(-90 88.2604 959.61)" fill="#5A4D70"/><circle cx="134.171" cy="959.61" r="2.29552" transform="rotate(-90 134.171 959.61)" fill="#5A4D70"/><circle cx="180.083" cy="959.61" r="2.29552" transform="rotate(-90 180.083 959.61)" fill="#5A4D70"/><circle cx="225.99" cy="959.61" r="2.29552" transform="rotate(-90 225.99 959.61)" fill="#5A4D70"/><circle cx="271.903" cy="959.61" r="2.29552" transform="rotate(-90 271.903 959.61)" fill="#5A4D70"/><circle cx="317.813" cy="959.61" r="2.29552" transform="rotate(-90 317.813 959.61)" fill="#5A4D70"/><circle cx="363.723" cy="959.61" r="2.29552" transform="rotate(-90 363.723 959.61)" fill="#5A4D70"/><circle cx="409.633" cy="959.61" r="2.29552" transform="rotate(-90 409.633 959.61)" fill="#5A4D70"/><circle cx="455.544" cy="959.61" r="2.29552" transform="rotate(-90 455.544 959.61)" fill="#5A4D70"/><circle cx="501.453" cy="959.61" r="2.29552" transform="rotate(-90 501.453 959.61)" fill="#5A4D70"/><circle cx="547.364" cy="959.61" r="2.29552" transform="rotate(-90 547.364 959.61)" fill="#5A4D70"/><circle cx="593.274" cy="959.61" r="2.29552" transform="rotate(-90 593.274 959.61)" fill="#5A4D70"/><circle cx="639.187" cy="959.61" r="2.29552" transform="rotate(-90 639.187 959.61)" fill="#5A4D70"/><circle cx="685.094" cy="959.61" r="2.29552" transform="rotate(-90 685.094 959.61)" fill="#CBC2FF"/><circle cx="731.007" cy="959.61" r="2.29552" transform="rotate(-90 731.007 959.61)" fill="#5A4D70"/><circle cx="776.917" cy="959.61" r="2.29552" transform="rotate(-90 776.917 959.61)" fill="#5A4D70"/><circle cx="822.827" cy="959.61" r="2.29552" transform="rotate(-90 822.827 959.61)" fill="#5A4D70"/><circle cx="868.737" cy="959.61" r="2.29552" transform="rotate(-90 868.737 959.61)" fill="#5A4D70"/><circle cx="914.647" cy="959.61" r="2.29552" transform="rotate(-90 914.647 959.61)" fill="#5A4D70"/><circle cx="960.557" cy="959.61" r="2.29552" transform="rotate(-90 960.557 959.61)" fill="#5A4D70"/><circle cx="1006.47" cy="959.61" r="2.29552" transform="rotate(-90 1006.47 959.61)" fill="#5A4D70"/><circle cx="1052.38" cy="959.61" r="2.29552" transform="rotate(-90 1052.38 959.61)" fill="#5A4D70"/><circle cx="1098.29" cy="959.61" r="2.29552" transform="rotate(-90 1098.29 959.61)" fill="#5A4D70"/><circle cx="1144.2" cy="959.61" r="2.29552" transform="rotate(-90 1144.2 959.61)" fill="#5A4D70"/><circle cx="1190.11" cy="959.61" r="2.29552" transform="rotate(-90 1190.11 959.61)" fill="#5A4D70"/><circle cx="1236.02" cy="959.61" r="2.29552" transform="rotate(-90 1236.02 959.61)" fill="#5A4D70"/><circle cx="1281.93" cy="959.61" r="2.29552" transform="rotate(-90 1281.93 959.61)" fill="#5A4D70"/><circle cx="1327.84" cy="959.61" r="2.29552" transform="rotate(-90 1327.84 959.61)" fill="#5A4D70"/><circle cx="1373.75" cy="959.61" r="2.29552" transform="rotate(-90 1373.75 959.61)" fill="#5A4D70"/><circle cx="1419.66" cy="959.61" r="2.29552" transform="rotate(-90 1419.66 959.61)" fill="#5A4D70"/><circle cx="1465.57" cy="959.61" r="2.29552" transform="rotate(-90 1465.57 959.61)" fill="#5A4D70"/><circle cx="1511.48" cy="959.61" r="2.29552" transform="rotate(-90 1511.48 959.61)" fill="#5A4D70"/><circle cx="1557.39" cy="959.61" r="2.29552" transform="rotate(-90 1557.39 959.61)" fill="#5A4D70"/><circle cx="42.3502" cy="913.699" r="2.29552" transform="rotate(-90 42.3502 913.699)" fill="#5A4D70"/><circle cx="88.2604" cy="913.699" r="2.29552" transform="rotate(-90 88.2604 913.699)" fill="#5A4D70"/><circle cx="134.171" cy="913.699" r="2.29552" transform="rotate(-90 134.171 913.699)" fill="#5A4D70"/><circle cx="180.083" cy="913.699" r="2.29552" transform="rotate(-90 180.083 913.699)" fill="#5A4D70"/><circle cx="225.99" cy="913.699" r="2.29552" transform="rotate(-90 225.99 913.699)" fill="#5A4D70"/><circle cx="271.903" cy="913.699" r="2.29552" transform="rotate(-90 271.903 913.699)" fill="#5A4D70"/><circle cx="317.813" cy="913.699" r="2.29552" transform="rotate(-90 317.813 913.699)" fill="#5A4D70"/><circle cx="363.723" cy="913.699" r="2.29552" transform="rotate(-90 363.723 913.699)" fill="#5A4D70"/><circle cx="409.633" cy="913.699" r="2.29552" transform="rotate(-90 409.633 913.699)" fill="#5A4D70"/><circle cx="455.544" cy="913.699" r="2.29552" transform="rotate(-90 455.544 913.699)" fill="#5A4D70"/><circle cx="501.454" cy="913.699" r="2.29552" transform="rotate(-90 501.454 913.699)" fill="#5A4D70"/><circle cx="547.364" cy="913.699" r="2.29552" transform="rotate(-90 547.364 913.699)" fill="#5A4D70"/><circle cx="593.274" cy="913.699" r="2.29552" transform="rotate(-90 593.274 913.699)" fill="#5A4D70"/><circle cx="639.187" cy="913.699" r="2.29552" transform="rotate(-90 639.187 913.699)" fill="#5A4D70"/><circle cx="685.094" cy="913.699" r="2.29552" transform="rotate(-90 685.094 913.699)" fill="#5A4D70"/><circle cx="731.007" cy="913.699" r="2.29552" transform="rotate(-90 731.007 913.699)" fill="#5A4D70"/><circle cx="776.917" cy="913.699" r="2.29552" transform="rotate(-90 776.917 913.699)" fill="#5A4D70"/><circle cx="822.827" cy="913.699" r="2.29552" transform="rotate(-90 822.827 913.699)" fill="#5A4D70"/><circle cx="868.737" cy="913.699" r="2.29552" transform="rotate(-90 868.737 913.699)" fill="#5A4D70"/><circle cx="914.647" cy="913.699" r="2.29552" transform="rotate(-90 914.647 913.699)" fill="#5A4D70"/><circle cx="960.557" cy="913.699" r="2.29552" transform="rotate(-90 960.557 913.699)" fill="#CBC2FF"/><circle cx="1006.47" cy="913.699" r="2.29552" transform="rotate(-90 1006.47 913.699)" fill="#5A4D70"/><circle cx="1052.38" cy="913.699" r="2.29552" transform="rotate(-90 1052.38 913.699)" fill="#5A4D70"/><circle cx="1098.29" cy="913.699" r="2.29552" transform="rotate(-90 1098.29 913.699)" fill="#5A4D70"/><circle cx="1144.2" cy="913.699" r="2.29552" transform="rotate(-90 1144.2 913.699)" fill="#5A4D70"/><circle cx="1190.11" cy="913.699" r="2.29552" transform="rotate(-90 1190.11 913.699)" fill="#5A4D70"/><circle cx="1236.02" cy="913.699" r="2.29552" transform="rotate(-90 1236.02 913.699)" fill="#5A4D70"/><circle cx="1281.93" cy="913.699" r="2.29552" transform="rotate(-90 1281.93 913.699)" fill="#5A4D70"/><circle cx="1327.84" cy="913.699" r="2.29552" transform="rotate(-90 1327.84 913.699)" fill="#5A4D70"/><circle cx="1373.75" cy="913.699" r="2.29552" transform="rotate(-90 1373.75 913.699)" fill="#5A4D70"/><circle cx="1419.66" cy="913.699" r="2.29552" transform="rotate(-90 1419.66 913.699)" fill="#5A4D70"/><circle cx="1465.57" cy="913.699" r="2.29552" transform="rotate(-90 1465.57 913.699)" fill="#CBC2FF"/><circle cx="1511.48" cy="913.699" r="2.29552" transform="rotate(-90 1511.48 913.699)" fill="#5A4D70"/><circle cx="1557.39" cy="913.699" r="2.29552" transform="rotate(-90 1557.39 913.699)" fill="#5A4D70"/><circle cx="42.3502" cy="867.774" r="2.29552" transform="rotate(-90 42.3502 867.774)" fill="#5A4D70"/><circle cx="88.2604" cy="867.774" r="2.29552" transform="rotate(-90 88.2604 867.774)" fill="#5A4D70"/><circle cx="134.17" cy="867.774" r="2.29552" transform="rotate(-90 134.17 867.774)" fill="#5A4D70"/><circle cx="180.083" cy="867.774" r="2.29552" transform="rotate(-90 180.083 867.774)" fill="#5A4D70"/><circle cx="225.99" cy="867.774" r="2.29552" transform="rotate(-90 225.99 867.774)" fill="#5A4D70"/><circle cx="271.903" cy="867.774" r="2.29552" transform="rotate(-90 271.903 867.774)" fill="#5A4D70"/><circle cx="317.813" cy="867.774" r="2.29552" transform="rotate(-90 317.813 867.774)" fill="#5A4D70"/><circle cx="363.723" cy="867.774" r="2.29552" transform="rotate(-90 363.723 867.774)" fill="#CBC2FF"/><circle cx="409.633" cy="867.774" r="2.29552" transform="rotate(-90 409.633 867.774)" fill="#5A4D70"/><circle cx="455.544" cy="867.774" r="2.29552" transform="rotate(-90 455.544 867.774)" fill="#5A4D70"/><circle cx="501.453" cy="867.774" r="2.29552" transform="rotate(-90 501.453 867.774)" fill="#5A4D70"/><circle cx="547.364" cy="867.774" r="2.29552" transform="rotate(-90 547.364 867.774)" fill="#5A4D70"/><circle cx="593.274" cy="867.774" r="2.29552" transform="rotate(-90 593.274 867.774)" fill="#5A4D70"/><circle cx="639.187" cy="867.774" r="2.29552" transform="rotate(-90 639.187 867.774)" fill="#5A4D70"/><circle cx="685.094" cy="867.774" r="2.29552" transform="rotate(-90 685.094 867.774)" fill="#5A4D70"/><circle cx="731.007" cy="867.774" r="2.29552" transform="rotate(-90 731.007 867.774)" fill="#5A4D70"/><circle cx="776.917" cy="867.774" r="2.29552" transform="rotate(-90 776.917 867.774)" fill="#5A4D70"/><circle cx="822.827" cy="867.774" r="2.29552" transform="rotate(-90 822.827 867.774)" fill="#5A4D70"/><circle cx="868.737" cy="867.774" r="2.29552" transform="rotate(-90 868.737 867.774)" fill="#5A4D70"/><circle cx="914.647" cy="867.774" r="2.29552" transform="rotate(-90 914.647 867.774)" fill="#5A4D70"/><circle cx="960.557" cy="867.774" r="2.29552" transform="rotate(-90 960.557 867.774)" fill="#5A4D70"/><circle cx="1006.47" cy="867.774" r="2.29552" transform="rotate(-90 1006.47 867.774)" fill="#5A4D70"/><circle cx="1052.38" cy="867.774" r="2.29552" transform="rotate(-90 1052.38 867.774)" fill="#5A4D70"/><circle cx="1098.29" cy="867.774" r="2.29552" transform="rotate(-90 1098.29 867.774)" fill="#5A4D70"/><circle cx="1144.2" cy="867.774" r="2.29552" transform="rotate(-90 1144.2 867.774)" fill="#5A4D70"/><circle cx="1190.11" cy="867.774" r="2.29552" transform="rotate(-90 1190.11 867.774)" fill="#5A4D70"/><circle cx="1236.02" cy="867.774" r="2.29552" transform="rotate(-90 1236.02 867.774)" fill="#5A4D70"/><circle cx="1281.93" cy="867.774" r="2.29552" transform="rotate(-90 1281.93 867.774)" fill="#5A4D70"/><circle cx="1327.84" cy="867.774" r="2.29552" transform="rotate(-90 1327.84 867.774)" fill="#5A4D70"/><circle cx="1373.75" cy="867.774" r="2.29552" transform="rotate(-90 1373.75 867.774)" fill="#5A4D70"/><circle cx="1419.66" cy="867.774" r="2.29552" transform="rotate(-90 1419.66 867.774)" fill="#5A4D70"/><circle cx="1465.57" cy="867.774" r="2.29552" transform="rotate(-90 1465.57 867.774)" fill="#5A4D70"/><circle cx="1511.48" cy="867.774" r="2.29552" transform="rotate(-90 1511.48 867.774)" fill="#5A4D70"/><circle cx="1557.39" cy="867.774" r="2.29552" transform="rotate(-90 1557.39 867.774)" fill="#5A4D70"/><circle cx="42.3502" cy="821.875" r="2.29552" transform="rotate(-90 42.3502 821.875)" fill="#5A4D70"/><circle cx="88.2604" cy="821.875" r="2.29552" transform="rotate(-90 88.2604 821.875)" fill="#5A4D70"/><circle cx="134.17" cy="821.875" r="2.29552" transform="rotate(-90 134.17 821.875)" fill="#5A4D70"/><circle cx="180.083" cy="821.875" r="2.29552" transform="rotate(-90 180.083 821.875)" fill="#5A4D70"/><circle cx="225.99" cy="821.875" r="2.29552" transform="rotate(-90 225.99 821.875)" fill="#5A4D70"/><circle cx="271.903" cy="821.875" r="2.29552" transform="rotate(-90 271.903 821.875)" fill="#5A4D70"/><circle cx="317.813" cy="821.875" r="2.29552" transform="rotate(-90 317.813 821.875)" fill="#5A4D70"/><circle cx="363.723" cy="821.875" r="2.29552" transform="rotate(-90 363.723 821.875)" fill="#5A4D70"/><circle cx="409.633" cy="821.875" r="2.29552" transform="rotate(-90 409.633 821.875)" fill="#5A4D70"/><circle cx="455.544" cy="821.875" r="2.29552" transform="rotate(-90 455.544 821.875)" fill="#5A4D70"/><circle cx="501.453" cy="821.875" r="2.29552" transform="rotate(-90 501.453 821.875)" fill="#5A4D70"/><circle cx="547.363" cy="821.875" r="2.29552" transform="rotate(-90 547.363 821.875)" fill="#5A4D70"/><circle cx="593.274" cy="821.875" r="2.29552" transform="rotate(-90 593.274 821.875)" fill="#5A4D70"/><circle cx="639.187" cy="821.875" r="2.29552" transform="rotate(-90 639.187 821.875)" fill="#5A4D70"/><circle cx="685.094" cy="821.875" r="2.29552" transform="rotate(-90 685.094 821.875)" fill="#5A4D70"/><circle cx="731.007" cy="821.875" r="2.29552" transform="rotate(-90 731.007 821.875)" fill="#5A4D70"/><circle cx="776.917" cy="821.875" r="2.29552" transform="rotate(-90 776.917 821.875)" fill="#5A4D70"/><circle cx="822.827" cy="821.875" r="2.29552" transform="rotate(-90 822.827 821.875)" fill="#5A4D70"/><circle cx="868.737" cy="821.875" r="2.29552" transform="rotate(-90 868.737 821.875)" fill="#5A4D70"/><circle cx="914.647" cy="821.875" r="2.29552" transform="rotate(-90 914.647 821.875)" fill="#5A4D70"/><circle cx="960.557" cy="821.875" r="2.29552" transform="rotate(-90 960.557 821.875)" fill="#5A4D70"/><circle cx="1006.47" cy="821.875" r="2.29552" transform="rotate(-90 1006.47 821.875)" fill="#5A4D70"/><circle cx="1052.38" cy="821.875" r="2.29552" transform="rotate(-90 1052.38 821.875)" fill="#5A4D70"/><circle cx="1098.29" cy="821.875" r="2.29552" transform="rotate(-90 1098.29 821.875)" fill="#5A4D70"/><circle cx="1144.2" cy="821.875" r="2.29552" transform="rotate(-90 1144.2 821.875)" fill="#5A4D70"/><circle cx="1190.11" cy="821.875" r="2.29552" transform="rotate(-90 1190.11 821.875)" fill="#5A4D70"/><circle cx="1236.02" cy="821.875" r="2.29552" transform="rotate(-90 1236.02 821.875)" fill="#5A4D70"/><circle cx="1281.93" cy="821.875" r="2.29552" transform="rotate(-90 1281.93 821.875)" fill="#5A4D70"/><circle cx="1327.84" cy="821.875" r="2.29552" transform="rotate(-90 1327.84 821.875)" fill="#5A4D70"/><circle cx="1373.75" cy="821.875" r="2.29552" transform="rotate(-90 1373.75 821.875)" fill="#5A4D70"/><circle cx="1419.66" cy="821.875" r="2.29552" transform="rotate(-90 1419.66 821.875)" fill="#5A4D70"/><circle cx="1465.57" cy="821.875" r="2.29552" transform="rotate(-90 1465.57 821.875)" fill="#5A4D70"/><circle cx="1511.48" cy="821.875" r="2.29552" transform="rotate(-90 1511.48 821.875)" fill="#5A4D70"/><circle cx="1557.39" cy="821.875" r="2.29552" transform="rotate(-90 1557.39 821.875)" fill="#5A4D70"/><circle cx="42.3502" cy="775.963" r="2.29552" transform="rotate(-90 42.3502 775.963)" fill="#5A4D70"/><circle cx="88.2604" cy="775.963" r="2.29552" transform="rotate(-90 88.2604 775.963)" fill="#5A4D70"/><circle cx="134.17" cy="775.963" r="2.29552" transform="rotate(-90 134.17 775.963)" fill="#5A4D70"/><circle cx="180.083" cy="775.963" r="2.29552" transform="rotate(-90 180.083 775.963)" fill="#5A4D70"/><circle cx="225.99" cy="775.963" r="2.29552" transform="rotate(-90 225.99 775.963)" fill="#5A4D70"/><circle cx="271.903" cy="775.963" r="2.29552" transform="rotate(-90 271.903 775.963)" fill="#5A4D70"/><circle cx="317.813" cy="775.963" r="2.29552" transform="rotate(-90 317.813 775.963)" fill="#5A4D70"/><circle cx="363.723" cy="775.963" r="2.29552" transform="rotate(-90 363.723 775.963)" fill="#5A4D70"/><circle cx="409.633" cy="775.963" r="2.29552" transform="rotate(-90 409.633 775.963)" fill="#5A4D70"/><circle cx="455.544" cy="775.963" r="2.29552" transform="rotate(-90 455.544 775.963)" fill="#5A4D70"/><circle cx="501.453" cy="775.963" r="2.29552" transform="rotate(-90 501.453 775.963)" fill="#5A4D70"/><circle cx="547.363" cy="775.963" r="2.29552" transform="rotate(-90 547.363 775.963)" fill="#5A4D70"/><circle cx="593.274" cy="775.963" r="2.29552" transform="rotate(-90 593.274 775.963)" fill="#CBC2FF"/><circle cx="639.187" cy="775.963" r="2.29552" transform="rotate(-90 639.187 775.963)" fill="#5A4D70"/><circle cx="685.094" cy="775.963" r="2.29552" transform="rotate(-90 685.094 775.963)" fill="#5A4D70"/><circle cx="731.007" cy="775.963" r="2.29552" transform="rotate(-90 731.007 775.963)" fill="#5A4D70"/><circle cx="776.917" cy="775.963" r="2.29552" transform="rotate(-90 776.917 775.963)" fill="#5A4D70"/><circle cx="822.827" cy="775.963" r="2.29552" transform="rotate(-90 822.827 775.963)" fill="#5A4D70"/><circle cx="868.737" cy="775.963" r="2.29552" transform="rotate(-90 868.737 775.963)" fill="#5A4D70"/><circle cx="914.647" cy="775.963" r="2.29552" transform="rotate(-90 914.647 775.963)" fill="#5A4D70"/><circle cx="960.557" cy="775.963" r="2.29552" transform="rotate(-90 960.557 775.963)" fill="#5A4D70"/><circle cx="1006.47" cy="775.963" r="2.29552" transform="rotate(-90 1006.47 775.963)" fill="#5A4D70"/><circle cx="1052.38" cy="775.963" r="2.29552" transform="rotate(-90 1052.38 775.963)" fill="#5A4D70"/><circle cx="1098.29" cy="775.963" r="2.29552" transform="rotate(-90 1098.29 775.963)" fill="#5A4D70"/><circle cx="1144.2" cy="775.963" r="2.29552" transform="rotate(-90 1144.2 775.963)" fill="#5A4D70"/><circle cx="1190.11" cy="775.963" r="2.29552" transform="rotate(-90 1190.11 775.963)" fill="#5A4D70"/><circle cx="1236.02" cy="775.963" r="2.29552" transform="rotate(-90 1236.02 775.963)" fill="#5A4D70"/><circle cx="1281.93" cy="775.963" r="2.29552" transform="rotate(-90 1281.93 775.963)" fill="#CBC2FF"/><circle cx="1327.84" cy="775.963" r="2.29552" transform="rotate(-90 1327.84 775.963)" fill="#5A4D70"/><circle cx="1373.75" cy="775.963" r="2.29552" transform="rotate(-90 1373.75 775.963)" fill="#5A4D70"/><circle cx="1419.66" cy="775.963" r="2.29552" transform="rotate(-90 1419.66 775.963)" fill="#5A4D70"/><circle cx="1465.57" cy="775.963" r="2.29552" transform="rotate(-90 1465.57 775.963)" fill="#5A4D70"/><circle cx="1511.48" cy="775.963" r="2.29552" transform="rotate(-90 1511.48 775.963)" fill="#5A4D70"/><circle cx="1557.39" cy="775.963" r="2.29552" transform="rotate(-90 1557.39 775.963)" fill="#5A4D70"/><circle cx="42.3502" cy="730.049" r="2.29552" transform="rotate(-90 42.3502 730.049)" fill="#5A4D70"/><circle cx="88.2604" cy="730.049" r="2.29552" transform="rotate(-90 88.2604 730.049)" fill="#CBC2FF"/><circle cx="134.17" cy="730.049" r="2.29552" transform="rotate(-90 134.17 730.049)" fill="#5A4D70"/><circle cx="180.083" cy="730.049" r="2.29552" transform="rotate(-90 180.083 730.049)" fill="#5A4D70"/><circle cx="225.99" cy="730.049" r="2.29552" transform="rotate(-90 225.99 730.049)" fill="#5A4D70"/><circle cx="271.903" cy="730.049" r="2.29552" transform="rotate(-90 271.903 730.049)" fill="#5A4D70"/><circle cx="317.813" cy="730.049" r="2.29552" transform="rotate(-90 317.813 730.049)" fill="#5A4D70"/><circle cx="363.723" cy="730.049" r="2.29552" transform="rotate(-90 363.723 730.049)" fill="#5A4D70"/><circle cx="409.633" cy="730.049" r="2.29552" transform="rotate(-90 409.633 730.049)" fill="#5A4D70"/><circle cx="455.544" cy="730.049" r="2.29552" transform="rotate(-90 455.544 730.049)" fill="#5A4D70"/><circle cx="501.453" cy="730.049" r="2.29552" transform="rotate(-90 501.453 730.049)" fill="#5A4D70"/><circle cx="547.364" cy="730.049" r="2.29552" transform="rotate(-90 547.364 730.049)" fill="#5A4D70"/><circle cx="593.274" cy="730.049" r="2.29552" transform="rotate(-90 593.274 730.049)" fill="#5A4D70"/><circle cx="639.187" cy="730.049" r="2.29552" transform="rotate(-90 639.187 730.049)" fill="#5A4D70"/><circle cx="685.094" cy="730.049" r="2.29552" transform="rotate(-90 685.094 730.049)" fill="#5A4D70"/><circle cx="731.007" cy="730.049" r="2.29552" transform="rotate(-90 731.007 730.049)" fill="#5A4D70"/><circle cx="776.917" cy="730.049" r="2.29552" transform="rotate(-90 776.917 730.049)" fill="#5A4D70"/><circle cx="822.827" cy="730.049" r="2.29552" transform="rotate(-90 822.827 730.049)" fill="#5A4D70"/><circle cx="868.737" cy="730.049" r="2.29552" transform="rotate(-90 868.737 730.049)" fill="#5A4D70"/><circle cx="914.647" cy="730.049" r="2.29552" transform="rotate(-90 914.647 730.049)" fill="#5A4D70"/><circle cx="960.557" cy="730.049" r="2.29552" transform="rotate(-90 960.557 730.049)" fill="#5A4D70"/><circle cx="1006.47" cy="730.049" r="2.29552" transform="rotate(-90 1006.47 730.049)" fill="#5A4D70"/><circle cx="1052.38" cy="730.049" r="2.29552" transform="rotate(-90 1052.38 730.049)" fill="#5A4D70"/><circle cx="1098.29" cy="730.049" r="2.29552" transform="rotate(-90 1098.29 730.049)" fill="#5A4D70"/><circle cx="1144.2" cy="730.049" r="2.29552" transform="rotate(-90 1144.2 730.049)" fill="#5A4D70"/><circle cx="1190.11" cy="730.049" r="2.29552" transform="rotate(-90 1190.11 730.049)" fill="#5A4D70"/><circle cx="1236.02" cy="730.049" r="2.29552" transform="rotate(-90 1236.02 730.049)" fill="#5A4D70"/><circle cx="1281.93" cy="730.049" r="2.29552" transform="rotate(-90 1281.93 730.049)" fill="#5A4D70"/><circle cx="1327.84" cy="730.049" r="2.29552" transform="rotate(-90 1327.84 730.049)" fill="#5A4D70"/><circle cx="1373.75" cy="730.049" r="2.29552" transform="rotate(-90 1373.75 730.049)" fill="#5A4D70"/><circle cx="1419.66" cy="730.049" r="2.29552" transform="rotate(-90 1419.66 730.049)" fill="#5A4D70"/><circle cx="1465.57" cy="730.049" r="2.29552" transform="rotate(-90 1465.57 730.049)" fill="#5A4D70"/><circle cx="1511.48" cy="730.049" r="2.29552" transform="rotate(-90 1511.48 730.049)" fill="#5A4D70"/><circle cx="1557.39" cy="730.049" r="2.29552" transform="rotate(-90 1557.39 730.049)" fill="#5A4D70"/><circle cx="42.3502" cy="684.139" r="2.29552" transform="rotate(-90 42.3502 684.139)" fill="#5A4D70"/><circle cx="88.2604" cy="684.139" r="2.29552" transform="rotate(-90 88.2604 684.139)" fill="#5A4D70"/><circle cx="134.17" cy="684.139" r="2.29552" transform="rotate(-90 134.17 684.139)" fill="#5A4D70"/><circle cx="180.083" cy="684.139" r="2.29552" transform="rotate(-90 180.083 684.139)" fill="#5A4D70"/><circle cx="225.99" cy="684.139" r="2.29552" transform="rotate(-90 225.99 684.139)" fill="#5A4D70"/><circle cx="271.903" cy="684.139" r="2.29552" transform="rotate(-90 271.903 684.139)" fill="#5A4D70"/><circle cx="317.813" cy="684.139" r="2.29552" transform="rotate(-90 317.813 684.139)" fill="#CBC2FF"/><circle cx="363.723" cy="684.139" r="2.29552" transform="rotate(-90 363.723 684.139)" fill="#5A4D70"/><circle cx="409.633" cy="684.139" r="2.29552" transform="rotate(-90 409.633 684.139)" fill="#5A4D70"/><circle cx="455.544" cy="684.139" r="2.29552" transform="rotate(-90 455.544 684.139)" fill="#5A4D70"/><circle cx="501.454" cy="684.139" r="2.29552" transform="rotate(-90 501.454 684.139)" fill="#5A4D70"/><circle cx="547.363" cy="684.139" r="2.29552" transform="rotate(-90 547.363 684.139)" fill="#5A4D70"/><circle cx="593.274" cy="684.139" r="2.29552" transform="rotate(-90 593.274 684.139)" fill="#5A4D70"/><circle cx="639.187" cy="684.139" r="2.29552" transform="rotate(-90 639.187 684.139)" fill="#5A4D70"/><circle cx="685.094" cy="684.139" r="2.29552" transform="rotate(-90 685.094 684.139)" fill="#5A4D70"/><circle cx="731.007" cy="684.139" r="2.29552" transform="rotate(-90 731.007 684.139)" fill="#5A4D70"/><circle cx="776.917" cy="684.139" r="2.29552" transform="rotate(-90 776.917 684.139)" fill="#5A4D70"/><circle cx="822.827" cy="684.139" r="2.29552" transform="rotate(-90 822.827 684.139)" fill="#5A4D70"/><circle cx="868.737" cy="684.139" r="2.29552" transform="rotate(-90 868.737 684.139)" fill="#5A4D70"/><circle cx="914.647" cy="684.139" r="2.29552" transform="rotate(-90 914.647 684.139)" fill="#5A4D70"/><circle cx="960.557" cy="684.139" r="2.29552" transform="rotate(-90 960.557 684.139)" fill="#5A4D70"/><circle cx="1006.47" cy="684.139" r="2.29552" transform="rotate(-90 1006.47 684.139)" fill="#5A4D70"/><circle cx="1052.38" cy="684.139" r="2.29552" transform="rotate(-90 1052.38 684.139)" fill="#5A4D70"/><circle cx="1098.29" cy="684.139" r="2.29552" transform="rotate(-90 1098.29 684.139)" fill="#5A4D70"/><circle cx="1144.2" cy="684.139" r="2.29552" transform="rotate(-90 1144.2 684.139)" fill="#5A4D70"/><circle cx="1190.11" cy="684.139" r="2.29552" transform="rotate(-90 1190.11 684.139)" fill="#5A4D70"/><circle cx="1236.02" cy="684.139" r="2.29552" transform="rotate(-90 1236.02 684.139)" fill="#5A4D70"/><circle cx="1281.93" cy="684.139" r="2.29552" transform="rotate(-90 1281.93 684.139)" fill="#5A4D70"/><circle cx="1327.84" cy="684.139" r="2.29552" transform="rotate(-90 1327.84 684.139)" fill="#5A4D70"/><circle cx="1373.75" cy="684.139" r="2.29552" transform="rotate(-90 1373.75 684.139)" fill="#5A4D70"/><circle cx="1419.66" cy="684.139" r="2.29552" transform="rotate(-90 1419.66 684.139)" fill="#5A4D70"/><circle cx="1465.57" cy="684.139" r="2.29552" transform="rotate(-90 1465.57 684.139)" fill="#5A4D70"/><circle cx="1511.48" cy="684.139" r="2.29552" transform="rotate(-90 1511.48 684.139)" fill="#5A4D70"/><circle cx="1557.39" cy="684.139" r="2.29552" transform="rotate(-90 1557.39 684.139)" fill="#5A4D70"/><circle cx="42.3502" cy="638.227" r="2.29552" transform="rotate(-90 42.3502 638.227)" fill="#5A4D70"/><circle cx="88.2604" cy="638.227" r="2.29552" transform="rotate(-90 88.2604 638.227)" fill="#5A4D70"/><circle cx="134.17" cy="638.227" r="2.29552" transform="rotate(-90 134.17 638.227)" fill="#5A4D70"/><circle cx="180.083" cy="638.227" r="2.29552" transform="rotate(-90 180.083 638.227)" fill="#5A4D70"/><circle cx="225.99" cy="638.227" r="2.29552" transform="rotate(-90 225.99 638.227)" fill="#5A4D70"/><circle cx="271.903" cy="638.227" r="2.29552" transform="rotate(-90 271.903 638.227)" fill="#5A4D70"/><circle cx="317.814" cy="638.227" r="2.29552" transform="rotate(-90 317.814 638.227)" fill="#5A4D70"/><circle cx="363.724" cy="638.227" r="2.29552" transform="rotate(-90 363.724 638.227)" fill="#5A4D70"/><circle cx="409.633" cy="638.227" r="2.29552" transform="rotate(-90 409.633 638.227)" fill="#5A4D70"/><circle cx="455.544" cy="638.227" r="2.29552" transform="rotate(-90 455.544 638.227)" fill="#5A4D70"/><circle cx="501.454" cy="638.227" r="2.29552" transform="rotate(-90 501.454 638.227)" fill="#5A4D70"/><circle cx="547.363" cy="638.227" r="2.29552" transform="rotate(-90 547.363 638.227)" fill="#5A4D70"/><circle cx="593.274" cy="638.227" r="2.29552" transform="rotate(-90 593.274 638.227)" fill="#5A4D70"/><circle cx="639.187" cy="638.227" r="2.29552" transform="rotate(-90 639.187 638.227)" fill="#5A4D70"/><circle cx="685.094" cy="638.227" r="2.29552" transform="rotate(-90 685.094 638.227)" fill="#5A4D70"/><circle cx="731.007" cy="638.227" r="2.29552" transform="rotate(-90 731.007 638.227)" fill="#5A4D70"/><circle cx="776.917" cy="638.227" r="2.29552" transform="rotate(-90 776.917 638.227)" fill="#5A4D70"/><circle cx="822.827" cy="638.227" r="2.29552" transform="rotate(-90 822.827 638.227)" fill="#5A4D70"/><circle cx="868.737" cy="638.227" r="2.29552" transform="rotate(-90 868.737 638.227)" fill="#5A4D70"/><circle cx="914.647" cy="638.227" r="2.29552" transform="rotate(-90 914.647 638.227)" fill="#5A4D70"/><circle cx="960.557" cy="638.227" r="2.29552" transform="rotate(-90 960.557 638.227)" fill="#5A4D70"/><circle cx="1006.47" cy="638.227" r="2.29552" transform="rotate(-90 1006.47 638.227)" fill="#5A4D70"/><circle cx="1052.38" cy="638.227" r="2.29552" transform="rotate(-90 1052.38 638.227)" fill="#5A4D70"/><circle cx="1098.29" cy="638.227" r="2.29552" transform="rotate(-90 1098.29 638.227)" fill="#5A4D70"/><circle cx="1144.2" cy="638.227" r="2.29552" transform="rotate(-90 1144.2 638.227)" fill="#5A4D70"/><circle cx="1190.11" cy="638.227" r="2.29552" transform="rotate(-90 1190.11 638.227)" fill="#5A4D70"/><circle cx="1236.02" cy="638.227" r="2.29552" transform="rotate(-90 1236.02 638.227)" fill="#5A4D70"/><circle cx="1281.93" cy="638.227" r="2.29552" transform="rotate(-90 1281.93 638.227)" fill="#5A4D70"/><circle cx="1327.84" cy="638.227" r="2.29552" transform="rotate(-90 1327.84 638.227)" fill="#5A4D70"/><circle cx="1373.75" cy="638.227" r="2.29552" transform="rotate(-90 1373.75 638.227)" fill="#5A4D70"/><circle cx="1419.66" cy="638.227" r="2.29552" transform="rotate(-90 1419.66 638.227)" fill="#CBC2FF"/><circle cx="1465.57" cy="638.227" r="2.29552" transform="rotate(-90 1465.57 638.227)" fill="#5A4D70"/><circle cx="1511.48" cy="638.227" r="2.29552" transform="rotate(-90 1511.48 638.227)" fill="#5A4D70"/><circle cx="1557.39" cy="638.227" r="2.29552" transform="rotate(-90 1557.39 638.227)" fill="#5A4D70"/><circle cx="42.3502" cy="592.337" r="2.29552" transform="rotate(-90 42.3502 592.337)" fill="#5A4D70"/><circle cx="88.2604" cy="592.337" r="2.29552" transform="rotate(-90 88.2604 592.337)" fill="#5A4D70"/><circle cx="134.171" cy="592.337" r="2.29552" transform="rotate(-90 134.171 592.337)" fill="#5A4D70"/><circle cx="180.083" cy="592.337" r="2.29552" transform="rotate(-90 180.083 592.337)" fill="#5A4D70"/><circle cx="225.99" cy="592.337" r="2.29552" transform="rotate(-90 225.99 592.337)" fill="#5A4D70"/><circle cx="271.903" cy="592.337" r="2.29552" transform="rotate(-90 271.903 592.337)" fill="#5A4D70"/><circle cx="317.813" cy="592.337" r="2.29552" transform="rotate(-90 317.813 592.337)" fill="#5A4D70"/><circle cx="363.723" cy="592.337" r="2.29552" transform="rotate(-90 363.723 592.337)" fill="#5A4D70"/><circle cx="409.633" cy="592.337" r="2.29552" transform="rotate(-90 409.633 592.337)" fill="#5A4D70"/><circle cx="455.544" cy="592.337" r="2.29552" transform="rotate(-90 455.544 592.337)" fill="#5A4D70"/><circle cx="501.453" cy="592.337" r="2.29552" transform="rotate(-90 501.453 592.337)" fill="#5A4D70"/><circle cx="547.364" cy="592.337" r="2.29552" transform="rotate(-90 547.364 592.337)" fill="#5A4D70"/><circle cx="593.274" cy="592.337" r="2.29552" transform="rotate(-90 593.274 592.337)" fill="#5A4D70"/><circle cx="639.187" cy="592.337" r="2.29552" transform="rotate(-90 639.187 592.337)" fill="#5A4D70"/><circle cx="685.094" cy="592.337" r="2.29552" transform="rotate(-90 685.094 592.337)" fill="#5A4D70"/><circle cx="731.007" cy="592.337" r="2.29552" transform="rotate(-90 731.007 592.337)" fill="#5A4D70"/><circle cx="776.917" cy="592.337" r="2.29552" transform="rotate(-90 776.917 592.337)" fill="#5A4D70"/><circle cx="822.827" cy="592.337" r="2.29552" transform="rotate(-90 822.827 592.337)" fill="#5A4D70"/><circle cx="868.737" cy="592.337" r="2.29552" transform="rotate(-90 868.737 592.337)" fill="#5A4D70"/><circle cx="914.647" cy="592.337" r="2.29552" transform="rotate(-90 914.647 592.337)" fill="#5A4D70"/><circle cx="960.557" cy="592.337" r="2.29552" transform="rotate(-90 960.557 592.337)" fill="#5A4D70"/><circle cx="1006.47" cy="592.337" r="2.29552" transform="rotate(-90 1006.47 592.337)" fill="#5A4D70"/><circle cx="1052.38" cy="592.337" r="2.29552" transform="rotate(-90 1052.38 592.337)" fill="#5A4D70"/><circle cx="1098.29" cy="592.337" r="2.29552" transform="rotate(-90 1098.29 592.337)" fill="#5A4D70"/><circle cx="1144.2" cy="592.337" r="2.29552" transform="rotate(-90 1144.2 592.337)" fill="#5A4D70"/><circle cx="1190.11" cy="592.337" r="2.29552" transform="rotate(-90 1190.11 592.337)" fill="#5A4D70"/><circle cx="1236.02" cy="592.337" r="2.29552" transform="rotate(-90 1236.02 592.337)" fill="#5A4D70"/><circle cx="1281.93" cy="592.337" r="2.29552" transform="rotate(-90 1281.93 592.337)" fill="#5A4D70"/><circle cx="1327.84" cy="592.337" r="2.29552" transform="rotate(-90 1327.84 592.337)" fill="#5A4D70"/><circle cx="1373.75" cy="592.337" r="2.29552" transform="rotate(-90 1373.75 592.337)" fill="#5A4D70"/><circle cx="1419.66" cy="592.337" r="2.29552" transform="rotate(-90 1419.66 592.337)" fill="#5A4D70"/><circle cx="1465.57" cy="592.337" r="2.29552" transform="rotate(-90 1465.57 592.337)" fill="#5A4D70"/><circle cx="1511.48" cy="592.337" r="2.29552" transform="rotate(-90 1511.48 592.337)" fill="#5A4D70"/><circle cx="1557.39" cy="592.337" r="2.29552" transform="rotate(-90 1557.39 592.337)" fill="#5A4D70"/><circle cx="42.3502" cy="546.427" r="2.29552" transform="rotate(-90 42.3502 546.427)" fill="#5A4D70"/><circle cx="88.2604" cy="546.427" r="2.29552" transform="rotate(-90 88.2604 546.427)" fill="#5A4D70"/><circle cx="134.17" cy="546.427" r="2.29552" transform="rotate(-90 134.17 546.427)" fill="#5A4D70"/><circle cx="180.083" cy="546.427" r="2.29552" transform="rotate(-90 180.083 546.427)" fill="#CBC2FF"/><circle cx="225.99" cy="546.427" r="2.29552" transform="rotate(-90 225.99 546.427)" fill="#5A4D70"/><circle cx="271.903" cy="546.427" r="2.29552" transform="rotate(-90 271.903 546.427)" fill="#5A4D70"/><circle cx="317.813" cy="546.427" r="2.29552" transform="rotate(-90 317.813 546.427)" fill="#5A4D70"/><circle cx="363.723" cy="546.427" r="2.29552" transform="rotate(-90 363.723 546.427)" fill="#5A4D70"/><circle cx="409.633" cy="546.427" r="2.29552" transform="rotate(-90 409.633 546.427)" fill="#5A4D70"/><circle cx="455.544" cy="546.427" r="2.29552" transform="rotate(-90 455.544 546.427)" fill="#5A4D70"/><circle cx="501.453" cy="546.427" r="2.29552" transform="rotate(-90 501.453 546.427)" fill="#5A4D70"/><circle cx="547.363" cy="546.427" r="2.29552" transform="rotate(-90 547.363 546.427)" fill="#5A4D70"/><circle cx="593.274" cy="546.427" r="2.29552" transform="rotate(-90 593.274 546.427)" fill="#5A4D70"/><circle cx="639.187" cy="546.427" r="2.29552" transform="rotate(-90 639.187 546.427)" fill="#5A4D70"/><circle cx="685.094" cy="546.427" r="2.29552" transform="rotate(-90 685.094 546.427)" fill="#5A4D70"/><circle cx="731.007" cy="546.427" r="2.29552" transform="rotate(-90 731.007 546.427)" fill="#5A4D70"/><circle cx="776.917" cy="546.427" r="2.29552" transform="rotate(-90 776.917 546.427)" fill="#5A4D70"/><circle cx="822.826" cy="546.427" r="2.29552" transform="rotate(-90 822.826 546.427)" fill="#5A4D70"/><circle cx="868.737" cy="546.427" r="2.29552" transform="rotate(-90 868.737 546.427)" fill="#5A4D70"/><circle cx="914.647" cy="546.427" r="2.29552" transform="rotate(-90 914.647 546.427)" fill="#5A4D70"/><circle cx="960.557" cy="546.427" r="2.29552" transform="rotate(-90 960.557 546.427)" fill="#5A4D70"/><circle cx="1006.47" cy="546.427" r="2.29552" transform="rotate(-90 1006.47 546.427)" fill="#5A4D70"/><circle cx="1052.38" cy="546.427" r="2.29552" transform="rotate(-90 1052.38 546.427)" fill="#5A4D70"/><circle cx="1098.29" cy="546.427" r="2.29552" transform="rotate(-90 1098.29 546.427)" fill="#5A4D70"/><circle cx="1144.2" cy="546.427" r="2.29552" transform="rotate(-90 1144.2 546.427)" fill="#5A4D70"/><circle cx="1190.11" cy="546.427" r="2.29552" transform="rotate(-90 1190.11 546.427)" fill="#5A4D70"/><circle cx="1236.02" cy="546.427" r="2.29552" transform="rotate(-90 1236.02 546.427)" fill="#5A4D70"/><circle cx="1281.93" cy="546.427" r="2.29552" transform="rotate(-90 1281.93 546.427)" fill="#CBC2FF"/><circle cx="1327.84" cy="546.427" r="2.29552" transform="rotate(-90 1327.84 546.427)" fill="#5A4D70"/><circle cx="1373.75" cy="546.427" r="2.29552" transform="rotate(-90 1373.75 546.427)" fill="#5A4D70"/><circle cx="1419.66" cy="546.427" r="2.29552" transform="rotate(-90 1419.66 546.427)" fill="#5A4D70"/><circle cx="1465.57" cy="546.427" r="2.29552" transform="rotate(-90 1465.57 546.427)" fill="#5A4D70"/><circle cx="1511.48" cy="546.427" r="2.29552" transform="rotate(-90 1511.48 546.427)" fill="#5A4D70"/><circle cx="1557.39" cy="546.427" r="2.29552" transform="rotate(-90 1557.39 546.427)" fill="#5A4D70"/><circle cx="42.3502" cy="500.502" r="2.29552" transform="rotate(-90 42.3502 500.502)" fill="#5A4D70"/><circle cx="88.2604" cy="500.502" r="2.29552" transform="rotate(-90 88.2604 500.502)" fill="#5A4D70"/><circle cx="134.17" cy="500.502" r="2.29552" transform="rotate(-90 134.17 500.502)" fill="#5A4D70"/><circle cx="180.083" cy="500.502" r="2.29552" transform="rotate(-90 180.083 500.502)" fill="#5A4D70"/><circle cx="225.99" cy="500.502" r="2.29552" transform="rotate(-90 225.99 500.502)" fill="#5A4D70"/><circle cx="271.903" cy="500.502" r="2.29552" transform="rotate(-90 271.903 500.502)" fill="#5A4D70"/><circle cx="317.813" cy="500.502" r="2.29552" transform="rotate(-90 317.813 500.502)" fill="#5A4D70"/><circle cx="363.723" cy="500.502" r="2.29552" transform="rotate(-90 363.723 500.502)" fill="#5A4D70"/><circle cx="409.633" cy="500.502" r="2.29552" transform="rotate(-90 409.633 500.502)" fill="#5A4D70"/><circle cx="455.544" cy="500.502" r="2.29552" transform="rotate(-90 455.544 500.502)" fill="#5A4D70"/><circle cx="501.453" cy="500.502" r="2.29552" transform="rotate(-90 501.453 500.502)" fill="#5A4D70"/><circle cx="547.363" cy="500.502" r="2.29552" transform="rotate(-90 547.363 500.502)" fill="#5A4D70"/><circle cx="593.274" cy="500.502" r="2.29552" transform="rotate(-90 593.274 500.502)" fill="#5A4D70"/><circle cx="639.187" cy="500.502" r="2.29552" transform="rotate(-90 639.187 500.502)" fill="#5A4D70"/><circle cx="685.094" cy="500.502" r="2.29552" transform="rotate(-90 685.094 500.502)" fill="#5A4D70"/><circle cx="731.007" cy="500.502" r="2.29552" transform="rotate(-90 731.007 500.502)" fill="#5A4D70"/><circle cx="776.917" cy="500.502" r="2.29552" transform="rotate(-90 776.917 500.502)" fill="#5A4D70"/><circle cx="822.826" cy="500.502" r="2.29552" transform="rotate(-90 822.826 500.502)" fill="#5A4D70"/><circle cx="868.737" cy="500.502" r="2.29552" transform="rotate(-90 868.737 500.502)" fill="#5A4D70"/><circle cx="914.647" cy="500.502" r="2.29552" transform="rotate(-90 914.647 500.502)" fill="#5A4D70"/><circle cx="960.557" cy="500.502" r="2.29552" transform="rotate(-90 960.557 500.502)" fill="#5A4D70"/><circle cx="1006.47" cy="500.502" r="2.29552" transform="rotate(-90 1006.47 500.502)" fill="#5A4D70"/><circle cx="1052.38" cy="500.502" r="2.29552" transform="rotate(-90 1052.38 500.502)" fill="#5A4D70"/><circle cx="1098.29" cy="500.502" r="2.29552" transform="rotate(-90 1098.29 500.502)" fill="#5A4D70"/><circle cx="1144.2" cy="500.502" r="2.29552" transform="rotate(-90 1144.2 500.502)" fill="#5A4D70"/><circle cx="1190.11" cy="500.502" r="2.29552" transform="rotate(-90 1190.11 500.502)" fill="#5A4D70"/><circle cx="1236.02" cy="500.502" r="2.29552" transform="rotate(-90 1236.02 500.502)" fill="#5A4D70"/><circle cx="1281.93" cy="500.502" r="2.29552" transform="rotate(-90 1281.93 500.502)" fill="#5A4D70"/><circle cx="1327.84" cy="500.502" r="2.29552" transform="rotate(-90 1327.84 500.502)" fill="#5A4D70"/><circle cx="1373.75" cy="500.502" r="2.29552" transform="rotate(-90 1373.75 500.502)" fill="#5A4D70"/><circle cx="1419.66" cy="500.502" r="2.29552" transform="rotate(-90 1419.66 500.502)" fill="#5A4D70"/><circle cx="1465.57" cy="500.502" r="2.29552" transform="rotate(-90 1465.57 500.502)" fill="#5A4D70"/><circle cx="1511.48" cy="500.502" r="2.29552" transform="rotate(-90 1511.48 500.502)" fill="#5A4D70"/><circle cx="1557.39" cy="500.502" r="2.29552" transform="rotate(-90 1557.39 500.502)" fill="#5A4D70"/><circle cx="42.3502" cy="454.59" r="2.29552" transform="rotate(-90 42.3502 454.59)" fill="#5A4D70"/><circle cx="88.2604" cy="454.59" r="2.29552" transform="rotate(-90 88.2604 454.59)" fill="#5A4D70"/><circle cx="134.17" cy="454.59" r="2.29552" transform="rotate(-90 134.17 454.59)" fill="#5A4D70"/><circle cx="180.083" cy="454.59" r="2.29552" transform="rotate(-90 180.083 454.59)" fill="#5A4D70"/><circle cx="225.99" cy="454.59" r="2.29552" transform="rotate(-90 225.99 454.59)" fill="#5A4D70"/><circle cx="271.903" cy="454.59" r="2.29552" transform="rotate(-90 271.903 454.59)" fill="#5A4D70"/><circle cx="317.813" cy="454.59" r="2.29552" transform="rotate(-90 317.813 454.59)" fill="#5A4D70"/><circle cx="363.723" cy="454.59" r="2.29552" transform="rotate(-90 363.723 454.59)" fill="#5A4D70"/><circle cx="409.633" cy="454.59" r="2.29552" transform="rotate(-90 409.633 454.59)" fill="#5A4D70"/><circle cx="455.544" cy="454.59" r="2.29552" transform="rotate(-90 455.544 454.59)" fill="#5A4D70"/><circle cx="501.453" cy="454.59" r="2.29552" transform="rotate(-90 501.453 454.59)" fill="#5A4D70"/><circle cx="547.363" cy="454.59" r="2.29552" transform="rotate(-90 547.363 454.59)" fill="#5A4D70"/><circle cx="593.274" cy="454.59" r="2.29552" transform="rotate(-90 593.274 454.59)" fill="#5A4D70"/><circle cx="639.187" cy="454.59" r="2.29552" transform="rotate(-90 639.187 454.59)" fill="#5A4D70"/><circle cx="685.094" cy="454.59" r="2.29552" transform="rotate(-90 685.094 454.59)" fill="#5A4D70"/><circle cx="731.007" cy="454.59" r="2.29552" transform="rotate(-90 731.007 454.59)" fill="#5A4D70"/><circle cx="776.917" cy="454.59" r="2.29552" transform="rotate(-90 776.917 454.59)" fill="#5A4D70"/><circle cx="822.826" cy="454.59" r="2.29552" transform="rotate(-90 822.826 454.59)" fill="#5A4D70"/><circle cx="868.737" cy="454.59" r="2.29552" transform="rotate(-90 868.737 454.59)" fill="#5A4D70"/><circle cx="914.647" cy="454.59" r="2.29552" transform="rotate(-90 914.647 454.59)" fill="#5A4D70"/><circle cx="960.557" cy="454.59" r="2.29552" transform="rotate(-90 960.557 454.59)" fill="#5A4D70"/><circle cx="1006.47" cy="454.59" r="2.29552" transform="rotate(-90 1006.47 454.59)" fill="#5A4D70"/><circle cx="1052.38" cy="454.59" r="2.29552" transform="rotate(-90 1052.38 454.59)" fill="#5A4D70"/><circle cx="1098.29" cy="454.59" r="2.29552" transform="rotate(-90 1098.29 454.59)" fill="#5A4D70"/><circle cx="1144.2" cy="454.59" r="2.29552" transform="rotate(-90 1144.2 454.59)" fill="#5A4D70"/><circle cx="1190.11" cy="454.59" r="2.29552" transform="rotate(-90 1190.11 454.59)" fill="#5A4D70"/><circle cx="1236.02" cy="454.59" r="2.29552" transform="rotate(-90 1236.02 454.59)" fill="#5A4D70"/><circle cx="1281.93" cy="454.59" r="2.29552" transform="rotate(-90 1281.93 454.59)" fill="#5A4D70"/><circle cx="1327.84" cy="454.59" r="2.29552" transform="rotate(-90 1327.84 454.59)" fill="#5A4D70"/><circle cx="1373.75" cy="454.59" r="2.29552" transform="rotate(-90 1373.75 454.59)" fill="#5A4D70"/><circle cx="1419.66" cy="454.59" r="2.29552" transform="rotate(-90 1419.66 454.59)" fill="#5A4D70"/><circle cx="1465.57" cy="454.59" r="2.29552" transform="rotate(-90 1465.57 454.59)" fill="#5A4D70"/><circle cx="1511.48" cy="454.59" r="2.29552" transform="rotate(-90 1511.48 454.59)" fill="#5A4D70"/><circle cx="1557.39" cy="454.59" r="2.29552" transform="rotate(-90 1557.39 454.59)" fill="#CBC2FF"/><circle cx="42.3502" cy="408.687" r="2.29552" transform="rotate(-90 42.3502 408.687)" fill="#CBC2FF"/><circle cx="88.2604" cy="408.687" r="2.29552" transform="rotate(-90 88.2604 408.687)" fill="#5A4D70"/><circle cx="134.17" cy="408.687" r="2.29552" transform="rotate(-90 134.17 408.687)" fill="#5A4D70"/><circle cx="180.083" cy="408.687" r="2.29552" transform="rotate(-90 180.083 408.687)" fill="#5A4D70"/><circle cx="225.99" cy="408.687" r="2.29552" transform="rotate(-90 225.99 408.687)" fill="#5A4D70"/><circle cx="271.903" cy="408.687" r="2.29552" transform="rotate(-90 271.903 408.687)" fill="#5A4D70"/><circle cx="317.814" cy="408.687" r="2.29552" transform="rotate(-90 317.814 408.687)" fill="#5A4D70"/><circle cx="363.724" cy="408.687" r="2.29552" transform="rotate(-90 363.724 408.687)" fill="#5A4D70"/><circle cx="409.633" cy="408.687" r="2.29552" transform="rotate(-90 409.633 408.687)" fill="#5A4D70"/><circle cx="455.544" cy="408.687" r="2.29552" transform="rotate(-90 455.544 408.687)" fill="#5A4D70"/><circle cx="501.454" cy="408.687" r="2.29552" transform="rotate(-90 501.454 408.687)" fill="#5A4D70"/><circle cx="547.363" cy="408.687" r="2.29552" transform="rotate(-90 547.363 408.687)" fill="#5A4D70"/><circle cx="593.274" cy="408.687" r="2.29552" transform="rotate(-90 593.274 408.687)" fill="#5A4D70"/><circle cx="639.187" cy="408.687" r="2.29552" transform="rotate(-90 639.187 408.687)" fill="#5A4D70"/><circle cx="685.094" cy="408.687" r="2.29552" transform="rotate(-90 685.094 408.687)" fill="#5A4D70"/><circle cx="731.007" cy="408.687" r="2.29552" transform="rotate(-90 731.007 408.687)" fill="#5A4D70"/><circle cx="776.917" cy="408.687" r="2.29552" transform="rotate(-90 776.917 408.687)" fill="#5A4D70"/><circle cx="822.827" cy="408.687" r="2.29552" transform="rotate(-90 822.827 408.687)" fill="#5A4D70"/><circle cx="868.737" cy="408.687" r="2.29552" transform="rotate(-90 868.737 408.687)" fill="#5A4D70"/><circle cx="914.647" cy="408.687" r="2.29552" transform="rotate(-90 914.647 408.687)" fill="#5A4D70"/><circle cx="960.557" cy="408.687" r="2.29552" transform="rotate(-90 960.557 408.687)" fill="#5A4D70"/><circle cx="1006.47" cy="408.687" r="2.29552" transform="rotate(-90 1006.47 408.687)" fill="#5A4D70"/><circle cx="1052.38" cy="408.687" r="2.29552" transform="rotate(-90 1052.38 408.687)" fill="#5A4D70"/><circle cx="1098.29" cy="408.687" r="2.29552" transform="rotate(-90 1098.29 408.687)" fill="#5A4D70"/><circle cx="1144.2" cy="408.687" r="2.29552" transform="rotate(-90 1144.2 408.687)" fill="#5A4D70"/><circle cx="1190.11" cy="408.687" r="2.29552" transform="rotate(-90 1190.11 408.687)" fill="#5A4D70"/><circle cx="1236.02" cy="408.687" r="2.29552" transform="rotate(-90 1236.02 408.687)" fill="#5A4D70"/><circle cx="1281.93" cy="408.687" r="2.29552" transform="rotate(-90 1281.93 408.687)" fill="#5A4D70"/><circle cx="1327.84" cy="408.687" r="2.29552" transform="rotate(-90 1327.84 408.687)" fill="#5A4D70"/><circle cx="1373.75" cy="408.687" r="2.29552" transform="rotate(-90 1373.75 408.687)" fill="#5A4D70"/><circle cx="1419.66" cy="408.687" r="2.29552" transform="rotate(-90 1419.66 408.687)" fill="#5A4D70"/><circle cx="1465.57" cy="408.687" r="2.29552" transform="rotate(-90 1465.57 408.687)" fill="#5A4D70"/><circle cx="1511.48" cy="408.687" r="2.29552" transform="rotate(-90 1511.48 408.687)" fill="#5A4D70"/><circle cx="1557.39" cy="408.687" r="2.29552" transform="rotate(-90 1557.39 408.687)" fill="#5A4D70"/><circle cx="42.3502" cy="362.778" r="2.29552" transform="rotate(-90 42.3502 362.778)" fill="#5A4D70"/><circle cx="88.2604" cy="362.778" r="2.29552" transform="rotate(-90 88.2604 362.778)" fill="#5A4D70"/><circle cx="134.17" cy="362.778" r="2.29552" transform="rotate(-90 134.17 362.778)" fill="#5A4D70"/><circle cx="180.083" cy="362.778" r="2.29552" transform="rotate(-90 180.083 362.778)" fill="#5A4D70"/><circle cx="225.99" cy="362.778" r="2.29552" transform="rotate(-90 225.99 362.778)" fill="#5A4D70"/><circle cx="271.903" cy="362.778" r="2.29552" transform="rotate(-90 271.903 362.778)" fill="#5A4D70"/><circle cx="317.813" cy="362.778" r="2.29552" transform="rotate(-90 317.813 362.778)" fill="#5A4D70"/><circle cx="363.723" cy="362.778" r="2.29552" transform="rotate(-90 363.723 362.778)" fill="#CBC2FF"/><circle cx="409.633" cy="362.778" r="2.29552" transform="rotate(-90 409.633 362.778)" fill="#5A4D70"/><circle cx="455.544" cy="362.778" r="2.29552" transform="rotate(-90 455.544 362.778)" fill="#5A4D70"/><circle cx="501.453" cy="362.778" r="2.29552" transform="rotate(-90 501.453 362.778)" fill="#5A4D70"/><circle cx="547.363" cy="362.778" r="2.29552" transform="rotate(-90 547.363 362.778)" fill="#5A4D70"/><circle cx="593.274" cy="362.778" r="2.29552" transform="rotate(-90 593.274 362.778)" fill="#5A4D70"/><circle cx="639.187" cy="362.778" r="2.29552" transform="rotate(-90 639.187 362.778)" fill="#5A4D70"/><circle cx="685.094" cy="362.778" r="2.29552" transform="rotate(-90 685.094 362.778)" fill="#5A4D70"/><circle cx="731.007" cy="362.778" r="2.29552" transform="rotate(-90 731.007 362.778)" fill="#5A4D70"/><circle cx="776.917" cy="362.778" r="2.29552" transform="rotate(-90 776.917 362.778)" fill="#5A4D70"/><circle cx="822.826" cy="362.778" r="2.29552" transform="rotate(-90 822.826 362.778)" fill="#5A4D70"/><circle cx="868.737" cy="362.778" r="2.29552" transform="rotate(-90 868.737 362.778)" fill="#5A4D70"/><circle cx="914.647" cy="362.778" r="2.29552" transform="rotate(-90 914.647 362.778)" fill="#5A4D70"/><circle cx="960.557" cy="362.778" r="2.29552" transform="rotate(-90 960.557 362.778)" fill="#5A4D70"/><circle cx="1006.47" cy="362.778" r="2.29552" transform="rotate(-90 1006.47 362.778)" fill="#5A4D70"/><circle cx="1052.38" cy="362.778" r="2.29552" transform="rotate(-90 1052.38 362.778)" fill="#5A4D70"/><circle cx="1098.29" cy="362.778" r="2.29552" transform="rotate(-90 1098.29 362.778)" fill="#5A4D70"/><circle cx="1144.2" cy="362.778" r="2.29552" transform="rotate(-90 1144.2 362.778)" fill="#5A4D70"/><circle cx="1190.11" cy="362.778" r="2.29552" transform="rotate(-90 1190.11 362.778)" fill="#5A4D70"/><circle cx="1236.02" cy="362.778" r="2.29552" transform="rotate(-90 1236.02 362.778)" fill="#5A4D70"/><circle cx="1281.93" cy="362.778" r="2.29552" transform="rotate(-90 1281.93 362.778)" fill="#5A4D70"/><circle cx="1327.84" cy="362.778" r="2.29552" transform="rotate(-90 1327.84 362.778)" fill="#5A4D70"/><circle cx="1373.75" cy="362.778" r="2.29552" transform="rotate(-90 1373.75 362.778)" fill="#5A4D70"/><circle cx="1419.66" cy="362.778" r="2.29552" transform="rotate(-90 1419.66 362.778)" fill="#5A4D70"/><circle cx="1465.57" cy="362.778" r="2.29552" transform="rotate(-90 1465.57 362.778)" fill="#5A4D70"/><circle cx="1511.48" cy="362.778" r="2.29552" transform="rotate(-90 1511.48 362.778)" fill="#5A4D70"/><circle cx="1557.39" cy="362.778" r="2.29552" transform="rotate(-90 1557.39 362.778)" fill="#5A4D70"/><circle cx="42.3502" cy="316.865" r="2.29552" transform="rotate(-90 42.3502 316.865)" fill="#5A4D70"/><circle cx="88.2604" cy="316.865" r="2.29552" transform="rotate(-90 88.2604 316.865)" fill="#5A4D70"/><circle cx="134.17" cy="316.865" r="2.29552" transform="rotate(-90 134.17 316.865)" fill="#5A4D70"/><circle cx="180.083" cy="316.865" r="2.29552" transform="rotate(-90 180.083 316.865)" fill="#5A4D70"/><circle cx="225.99" cy="316.865" r="2.29552" transform="rotate(-90 225.99 316.865)" fill="#5A4D70"/><circle cx="271.903" cy="316.865" r="2.29552" transform="rotate(-90 271.903 316.865)" fill="#5A4D70"/><circle cx="317.813" cy="316.865" r="2.29552" transform="rotate(-90 317.813 316.865)" fill="#5A4D70"/><circle cx="363.723" cy="316.865" r="2.29552" transform="rotate(-90 363.723 316.865)" fill="#5A4D70"/><circle cx="409.633" cy="316.865" r="2.29552" transform="rotate(-90 409.633 316.865)" fill="#5A4D70"/><circle cx="455.544" cy="316.865" r="2.29552" transform="rotate(-90 455.544 316.865)" fill="#5A4D70"/><circle cx="501.453" cy="316.865" r="2.29552" transform="rotate(-90 501.453 316.865)" fill="#5A4D70"/><circle cx="547.363" cy="316.865" r="2.29552" transform="rotate(-90 547.363 316.865)" fill="#5A4D70"/><circle cx="593.274" cy="316.865" r="2.29552" transform="rotate(-90 593.274 316.865)" fill="#5A4D70"/><circle cx="639.187" cy="316.865" r="2.29552" transform="rotate(-90 639.187 316.865)" fill="#5A4D70"/><circle cx="685.094" cy="316.865" r="2.29552" transform="rotate(-90 685.094 316.865)" fill="#5A4D70"/><circle cx="731.007" cy="316.865" r="2.29552" transform="rotate(-90 731.007 316.865)" fill="#5A4D70"/><circle cx="776.917" cy="316.865" r="2.29552" transform="rotate(-90 776.917 316.865)" fill="#5A4D70"/><circle cx="822.826" cy="316.865" r="2.29552" transform="rotate(-90 822.826 316.865)" fill="#5A4D70"/><circle cx="868.737" cy="316.865" r="2.29552" transform="rotate(-90 868.737 316.865)" fill="#CBC2FF"/><circle cx="914.647" cy="316.865" r="2.29552" transform="rotate(-90 914.647 316.865)" fill="#5A4D70"/><circle cx="960.557" cy="316.865" r="2.29552" transform="rotate(-90 960.557 316.865)" fill="#5A4D70"/><circle cx="1006.47" cy="316.865" r="2.29552" transform="rotate(-90 1006.47 316.865)" fill="#5A4D70"/><circle cx="1052.38" cy="316.865" r="2.29552" transform="rotate(-90 1052.38 316.865)" fill="#5A4D70"/><circle cx="1098.29" cy="316.865" r="2.29552" transform="rotate(-90 1098.29 316.865)" fill="#5A4D70"/><circle cx="1144.2" cy="316.865" r="2.29552" transform="rotate(-90 1144.2 316.865)" fill="#5A4D70"/><circle cx="1190.11" cy="316.865" r="2.29552" transform="rotate(-90 1190.11 316.865)" fill="#5A4D70"/><circle cx="1236.02" cy="316.865" r="2.29552" transform="rotate(-90 1236.02 316.865)" fill="#5A4D70"/><circle cx="1281.93" cy="316.865" r="2.29552" transform="rotate(-90 1281.93 316.865)" fill="#5A4D70"/><circle cx="1327.84" cy="316.865" r="2.29552" transform="rotate(-90 1327.84 316.865)" fill="#5A4D70"/><circle cx="1373.75" cy="316.865" r="2.29552" transform="rotate(-90 1373.75 316.865)" fill="#5A4D70"/><circle cx="1419.66" cy="316.865" r="2.29552" transform="rotate(-90 1419.66 316.865)" fill="#5A4D70"/><circle cx="1465.57" cy="316.865" r="2.29552" transform="rotate(-90 1465.57 316.865)" fill="#5A4D70"/><circle cx="1511.48" cy="316.865" r="2.29552" transform="rotate(-90 1511.48 316.865)" fill="#5A4D70"/><circle cx="1557.39" cy="316.865" r="2.29552" transform="rotate(-90 1557.39 316.865)" fill="#5A4D70"/><circle cx="42.3502" cy="270.951" r="2.29552" transform="rotate(-90 42.3502 270.951)" fill="#5A4D70"/><circle cx="88.2604" cy="270.951" r="2.29552" transform="rotate(-90 88.2604 270.951)" fill="#5A4D70"/><circle cx="134.17" cy="270.951" r="2.29552" transform="rotate(-90 134.17 270.951)" fill="#5A4D70"/><circle cx="180.083" cy="270.951" r="2.29552" transform="rotate(-90 180.083 270.951)" fill="#5A4D70"/><circle cx="225.99" cy="270.951" r="2.29552" transform="rotate(-90 225.99 270.951)" fill="#5A4D70"/><circle cx="271.903" cy="270.951" r="2.29552" transform="rotate(-90 271.903 270.951)" fill="#5A4D70"/><circle cx="317.813" cy="270.951" r="2.29552" transform="rotate(-90 317.813 270.951)" fill="#5A4D70"/><circle cx="363.723" cy="270.951" r="2.29552" transform="rotate(-90 363.723 270.951)" fill="#5A4D70"/><circle cx="409.633" cy="270.951" r="2.29552" transform="rotate(-90 409.633 270.951)" fill="#5A4D70"/><circle cx="455.544" cy="270.951" r="2.29552" transform="rotate(-90 455.544 270.951)" fill="#5A4D70"/><circle cx="501.454" cy="270.951" r="2.29552" transform="rotate(-90 501.454 270.951)" fill="#5A4D70"/><circle cx="547.363" cy="270.951" r="2.29552" transform="rotate(-90 547.363 270.951)" fill="#5A4D70"/><circle cx="593.274" cy="270.951" r="2.29552" transform="rotate(-90 593.274 270.951)" fill="#5A4D70"/><circle cx="639.187" cy="270.951" r="2.29552" transform="rotate(-90 639.187 270.951)" fill="#5A4D70"/><circle cx="685.094" cy="270.951" r="2.29552" transform="rotate(-90 685.094 270.951)" fill="#5A4D70"/><circle cx="731.007" cy="270.951" r="2.29552" transform="rotate(-90 731.007 270.951)" fill="#5A4D70"/><circle cx="776.917" cy="270.951" r="2.29552" transform="rotate(-90 776.917 270.951)" fill="#5A4D70"/><circle cx="822.827" cy="270.951" r="2.29552" transform="rotate(-90 822.827 270.951)" fill="#5A4D70"/><circle cx="868.737" cy="270.951" r="2.29552" transform="rotate(-90 868.737 270.951)" fill="#5A4D70"/><circle cx="914.647" cy="270.951" r="2.29552" transform="rotate(-90 914.647 270.951)" fill="#5A4D70"/><circle cx="960.557" cy="270.951" r="2.29552" transform="rotate(-90 960.557 270.951)" fill="#5A4D70"/><circle cx="1006.47" cy="270.951" r="2.29552" transform="rotate(-90 1006.47 270.951)" fill="#5A4D70"/><circle cx="1052.38" cy="270.951" r="2.29552" transform="rotate(-90 1052.38 270.951)" fill="#5A4D70"/><circle cx="1098.29" cy="270.951" r="2.29552" transform="rotate(-90 1098.29 270.951)" fill="#5A4D70"/><circle cx="1144.2" cy="270.951" r="2.29552" transform="rotate(-90 1144.2 270.951)" fill="#5A4D70"/><circle cx="1190.11" cy="270.951" r="2.29552" transform="rotate(-90 1190.11 270.951)" fill="#5A4D70"/><circle cx="1236.02" cy="270.951" r="2.29552" transform="rotate(-90 1236.02 270.951)" fill="#5A4D70"/><circle cx="1281.93" cy="270.951" r="2.29552" transform="rotate(-90 1281.93 270.951)" fill="#5A4D70"/><circle cx="1327.84" cy="270.951" r="2.29552" transform="rotate(-90 1327.84 270.951)" fill="#5A4D70"/><circle cx="1373.75" cy="270.951" r="2.29552" transform="rotate(-90 1373.75 270.951)" fill="#5A4D70"/><circle cx="1419.66" cy="270.951" r="2.29552" transform="rotate(-90 1419.66 270.951)" fill="#5A4D70"/><circle cx="1465.57" cy="270.951" r="2.29552" transform="rotate(-90 1465.57 270.951)" fill="#5A4D70"/><circle cx="1511.48" cy="270.951" r="2.29552" transform="rotate(-90 1511.48 270.951)" fill="#5A4D70"/><circle cx="1557.39" cy="270.951" r="2.29552" transform="rotate(-90 1557.39 270.951)" fill="#5A4D70"/><circle cx="42.3502" cy="225.041" r="2.29552" transform="rotate(-90 42.3502 225.041)" fill="#5A4D70"/><circle cx="88.2604" cy="225.041" r="2.29552" transform="rotate(-90 88.2604 225.041)" fill="#5A4D70"/><circle cx="134.171" cy="225.041" r="2.29552" transform="rotate(-90 134.171 225.041)" fill="#5A4D70"/><circle cx="180.083" cy="225.041" r="2.29552" transform="rotate(-90 180.083 225.041)" fill="#5A4D70"/><circle cx="225.99" cy="225.041" r="2.29552" transform="rotate(-90 225.99 225.041)" fill="#5A4D70"/><circle cx="271.903" cy="225.041" r="2.29552" transform="rotate(-90 271.903 225.041)" fill="#5A4D70"/><circle cx="317.814" cy="225.041" r="2.29552" transform="rotate(-90 317.814 225.041)" fill="#5A4D70"/><circle cx="363.724" cy="225.041" r="2.29552" transform="rotate(-90 363.724 225.041)" fill="#5A4D70"/><circle cx="409.633" cy="225.041" r="2.29552" transform="rotate(-90 409.633 225.041)" fill="#5A4D70"/><circle cx="455.544" cy="225.041" r="2.29552" transform="rotate(-90 455.544 225.041)" fill="#5A4D70"/><circle cx="501.454" cy="225.041" r="2.29552" transform="rotate(-90 501.454 225.041)" fill="#5A4D70"/><circle cx="547.364" cy="225.041" r="2.29552" transform="rotate(-90 547.364 225.041)" fill="#5A4D70"/><circle cx="593.274" cy="225.041" r="2.29552" transform="rotate(-90 593.274 225.041)" fill="#5A4D70"/><circle cx="639.187" cy="225.041" r="2.29552" transform="rotate(-90 639.187 225.041)" fill="#5A4D70"/><circle cx="685.094" cy="225.041" r="2.29552" transform="rotate(-90 685.094 225.041)" fill="#5A4D70"/><circle cx="731.007" cy="225.041" r="2.29552" transform="rotate(-90 731.007 225.041)" fill="#5A4D70"/><circle cx="776.917" cy="225.041" r="2.29552" transform="rotate(-90 776.917 225.041)" fill="#5A4D70"/><circle cx="822.827" cy="225.041" r="2.29552" transform="rotate(-90 822.827 225.041)" fill="#5A4D70"/><circle cx="868.737" cy="225.041" r="2.29552" transform="rotate(-90 868.737 225.041)" fill="#5A4D70"/><circle cx="914.647" cy="225.041" r="2.29552" transform="rotate(-90 914.647 225.041)" fill="#5A4D70"/><circle cx="960.557" cy="225.041" r="2.29552" transform="rotate(-90 960.557 225.041)" fill="#5A4D70"/><circle cx="1006.47" cy="225.041" r="2.29552" transform="rotate(-90 1006.47 225.041)" fill="#5A4D70"/><circle cx="1052.38" cy="225.041" r="2.29552" transform="rotate(-90 1052.38 225.041)" fill="#5A4D70"/><circle cx="1098.29" cy="225.041" r="2.29552" transform="rotate(-90 1098.29 225.041)" fill="#5A4D70"/><circle cx="1144.2" cy="225.041" r="2.29552" transform="rotate(-90 1144.2 225.041)" fill="#5A4D70"/><circle cx="1190.11" cy="225.041" r="2.29552" transform="rotate(-90 1190.11 225.041)" fill="#5A4D70"/><circle cx="1236.02" cy="225.041" r="2.29552" transform="rotate(-90 1236.02 225.041)" fill="#5A4D70"/><circle cx="1281.93" cy="225.041" r="2.29552" transform="rotate(-90 1281.93 225.041)" fill="#5A4D70"/><circle cx="1327.84" cy="225.041" r="2.29552" transform="rotate(-90 1327.84 225.041)" fill="#5A4D70"/><circle cx="1373.75" cy="225.041" r="2.29552" transform="rotate(-90 1373.75 225.041)" fill="#5A4D70"/><circle cx="1419.66" cy="225.041" r="2.29552" transform="rotate(-90 1419.66 225.041)" fill="#5A4D70"/><circle cx="1465.57" cy="225.041" r="2.29552" transform="rotate(-90 1465.57 225.041)" fill="#CBC2FF"/><circle cx="1511.48" cy="225.041" r="2.29552" transform="rotate(-90 1511.48 225.041)" fill="#5A4D70"/><circle cx="1557.39" cy="225.041" r="2.29552" transform="rotate(-90 1557.39 225.041)" fill="#5A4D70"/><circle cx="42.3502" cy="179.14" r="2.29552" transform="rotate(-90 42.3502 179.14)" fill="#5A4D70"/><circle cx="88.2604" cy="179.14" r="2.29552" transform="rotate(-90 88.2604 179.14)" fill="#5A4D70"/><circle cx="134.17" cy="179.14" r="2.29552" transform="rotate(-90 134.17 179.14)" fill="#5A4D70"/><circle cx="180.083" cy="179.14" r="2.29552" transform="rotate(-90 180.083 179.14)" fill="#5A4D70"/><circle cx="225.99" cy="179.14" r="2.29552" transform="rotate(-90 225.99 179.14)" fill="#5A4D70"/><circle cx="271.903" cy="179.14" r="2.29552" transform="rotate(-90 271.903 179.14)" fill="#5A4D70"/><circle cx="317.813" cy="179.14" r="2.29552" transform="rotate(-90 317.813 179.14)" fill="#5A4D70"/><circle cx="363.723" cy="179.14" r="2.29552" transform="rotate(-90 363.723 179.14)" fill="#5A4D70"/><circle cx="409.633" cy="179.14" r="2.29552" transform="rotate(-90 409.633 179.14)" fill="#5A4D70"/><circle cx="455.544" cy="179.14" r="2.29552" transform="rotate(-90 455.544 179.14)" fill="#5A4D70"/><circle cx="501.454" cy="179.14" r="2.29552" transform="rotate(-90 501.454 179.14)" fill="#5A4D70"/><circle cx="547.363" cy="179.14" r="2.29552" transform="rotate(-90 547.363 179.14)" fill="#5A4D70"/><circle cx="593.274" cy="179.14" r="2.29552" transform="rotate(-90 593.274 179.14)" fill="#5A4D70"/><circle cx="639.187" cy="179.14" r="2.29552" transform="rotate(-90 639.187 179.14)" fill="#5A4D70"/><circle cx="685.094" cy="179.14" r="2.29552" transform="rotate(-90 685.094 179.14)" fill="#5A4D70"/><circle cx="731.007" cy="179.14" r="2.29552" transform="rotate(-90 731.007 179.14)" fill="#5A4D70"/><circle cx="776.917" cy="179.14" r="2.29552" transform="rotate(-90 776.917 179.14)" fill="#5A4D70"/><circle cx="822.827" cy="179.14" r="2.29552" transform="rotate(-90 822.827 179.14)" fill="#5A4D70"/><circle cx="868.737" cy="179.14" r="2.29552" transform="rotate(-90 868.737 179.14)" fill="#5A4D70"/><circle cx="914.647" cy="179.14" r="2.29552" transform="rotate(-90 914.647 179.14)" fill="#5A4D70"/><circle cx="960.557" cy="179.14" r="2.29552" transform="rotate(-90 960.557 179.14)" fill="#5A4D70"/><circle cx="1006.47" cy="179.14" r="2.29552" transform="rotate(-90 1006.47 179.14)" fill="#5A4D70"/><circle cx="1052.38" cy="179.14" r="2.29552" transform="rotate(-90 1052.38 179.14)" fill="#5A4D70"/><circle cx="1098.29" cy="179.14" r="2.29552" transform="rotate(-90 1098.29 179.14)" fill="#5A4D70"/><circle cx="1144.2" cy="179.14" r="2.29552" transform="rotate(-90 1144.2 179.14)" fill="#5A4D70"/><circle cx="1190.11" cy="179.14" r="2.29552" transform="rotate(-90 1190.11 179.14)" fill="#CBC2FF"/><circle cx="1236.02" cy="179.14" r="2.29552" transform="rotate(-90 1236.02 179.14)" fill="#5A4D70"/><circle cx="1281.93" cy="179.14" r="2.29552" transform="rotate(-90 1281.93 179.14)" fill="#5A4D70"/><circle cx="1327.84" cy="179.14" r="2.29552" transform="rotate(-90 1327.84 179.14)" fill="#5A4D70"/><circle cx="1373.75" cy="179.14" r="2.29552" transform="rotate(-90 1373.75 179.14)" fill="#5A4D70"/><circle cx="1419.66" cy="179.14" r="2.29552" transform="rotate(-90 1419.66 179.14)" fill="#5A4D70"/><circle cx="1465.57" cy="179.14" r="2.29552" transform="rotate(-90 1465.57 179.14)" fill="#5A4D70"/><circle cx="1511.48" cy="179.14" r="2.29552" transform="rotate(-90 1511.48 179.14)" fill="#5A4D70"/><circle cx="1557.39" cy="179.14" r="2.29552" transform="rotate(-90 1557.39 179.14)" fill="#5A4D70"/><circle cx="42.3502" cy="133.215" r="2.29552" transform="rotate(-90 42.3502 133.215)" fill="#5A4D70"/><circle cx="88.2604" cy="133.215" r="2.29552" transform="rotate(-90 88.2604 133.215)" fill="#5A4D70"/><circle cx="134.171" cy="133.215" r="2.29552" transform="rotate(-90 134.171 133.215)" fill="#5A4D70"/><circle cx="180.083" cy="133.215" r="2.29552" transform="rotate(-90 180.083 133.215)" fill="#5A4D70"/><circle cx="225.99" cy="133.215" r="2.29552" transform="rotate(-90 225.99 133.215)" fill="#5A4D70"/><circle cx="271.903" cy="133.215" r="2.29552" transform="rotate(-90 271.903 133.215)" fill="#5A4D70"/><circle cx="317.813" cy="133.215" r="2.29552" transform="rotate(-90 317.813 133.215)" fill="#CBC2FF"/><circle cx="363.723" cy="133.215" r="2.29552" transform="rotate(-90 363.723 133.215)" fill="#5A4D70"/><circle cx="409.633" cy="133.215" r="2.29552" transform="rotate(-90 409.633 133.215)" fill="#5A4D70"/><circle cx="455.544" cy="133.215" r="2.29552" transform="rotate(-90 455.544 133.215)" fill="#5A4D70"/><circle cx="501.454" cy="133.215" r="2.29552" transform="rotate(-90 501.454 133.215)" fill="#5A4D70"/><circle cx="547.364" cy="133.215" r="2.29552" transform="rotate(-90 547.364 133.215)" fill="#5A4D70"/><circle cx="593.274" cy="133.215" r="2.29552" transform="rotate(-90 593.274 133.215)" fill="#5A4D70"/><circle cx="639.187" cy="133.215" r="2.29552" transform="rotate(-90 639.187 133.215)" fill="#5A4D70"/><circle cx="685.094" cy="133.215" r="2.29552" transform="rotate(-90 685.094 133.215)" fill="#5A4D70"/><circle cx="731.007" cy="133.215" r="2.29552" transform="rotate(-90 731.007 133.215)" fill="#CBC2FF"/><circle cx="776.917" cy="133.215" r="2.29552" transform="rotate(-90 776.917 133.215)" fill="#5A4D70"/><circle cx="822.827" cy="133.215" r="2.29552" transform="rotate(-90 822.827 133.215)" fill="#5A4D70"/><circle cx="868.737" cy="133.215" r="2.29552" transform="rotate(-90 868.737 133.215)" fill="#5A4D70"/><circle cx="914.647" cy="133.215" r="2.29552" transform="rotate(-90 914.647 133.215)" fill="#5A4D70"/><circle cx="960.557" cy="133.215" r="2.29552" transform="rotate(-90 960.557 133.215)" fill="#5A4D70"/><circle cx="1006.47" cy="133.215" r="2.29552" transform="rotate(-90 1006.47 133.215)" fill="#5A4D70"/><circle cx="1052.38" cy="133.215" r="2.29552" transform="rotate(-90 1052.38 133.215)" fill="#5A4D70"/><circle cx="1098.29" cy="133.215" r="2.29552" transform="rotate(-90 1098.29 133.215)" fill="#5A4D70"/><circle cx="1144.2" cy="133.215" r="2.29552" transform="rotate(-90 1144.2 133.215)" fill="#5A4D70"/><circle cx="1190.11" cy="133.215" r="2.29552" transform="rotate(-90 1190.11 133.215)" fill="#5A4D70"/><circle cx="1236.02" cy="133.215" r="2.29552" transform="rotate(-90 1236.02 133.215)" fill="#5A4D70"/><circle cx="1281.93" cy="133.215" r="2.29552" transform="rotate(-90 1281.93 133.215)" fill="#5A4D70"/><circle cx="1327.84" cy="133.215" r="2.29552" transform="rotate(-90 1327.84 133.215)" fill="#5A4D70"/><circle cx="1373.75" cy="133.215" r="2.29552" transform="rotate(-90 1373.75 133.215)" fill="#5A4D70"/><circle cx="1419.66" cy="133.215" r="2.29552" transform="rotate(-90 1419.66 133.215)" fill="#5A4D70"/><circle cx="1465.57" cy="133.215" r="2.29552" transform="rotate(-90 1465.57 133.215)" fill="#5A4D70"/><circle cx="1511.48" cy="133.215" r="2.29552" transform="rotate(-90 1511.48 133.215)" fill="#5A4D70"/><circle cx="1557.39" cy="133.215" r="2.29552" transform="rotate(-90 1557.39 133.215)" fill="#5A4D70"/><circle cx="42.3502" cy="87.3026" r="2.29552" transform="rotate(-90 42.3502 87.3026)" fill="#5A4D70"/><circle cx="88.2604" cy="87.3026" r="2.29552" transform="rotate(-90 88.2604 87.3026)" fill="#5A4D70"/><circle cx="134.171" cy="87.3026" r="2.29552" transform="rotate(-90 134.171 87.3026)" fill="#5A4D70"/><circle cx="180.083" cy="87.3026" r="2.29552" transform="rotate(-90 180.083 87.3026)" fill="#5A4D70"/><circle cx="225.99" cy="87.3026" r="2.29552" transform="rotate(-90 225.99 87.3026)" fill="#CBC2FF"/><circle cx="271.903" cy="87.3026" r="2.29552" transform="rotate(-90 271.903 87.3026)" fill="#5A4D70"/><circle cx="317.814" cy="87.3026" r="2.29552" transform="rotate(-90 317.814 87.3026)" fill="#5A4D70"/><circle cx="363.724" cy="87.3026" r="2.29552" transform="rotate(-90 363.724 87.3026)" fill="#5A4D70"/><circle cx="409.633" cy="87.3026" r="2.29552" transform="rotate(-90 409.633 87.3026)" fill="#5A4D70"/><circle cx="455.544" cy="87.3026" r="2.29552" transform="rotate(-90 455.544 87.3026)" fill="#5A4D70"/><circle cx="501.454" cy="87.3026" r="2.29552" transform="rotate(-90 501.454 87.3026)" fill="#5A4D70"/><circle cx="547.364" cy="87.3026" r="2.29552" transform="rotate(-90 547.364 87.3026)" fill="#5A4D70"/><circle cx="593.274" cy="87.3026" r="2.29552" transform="rotate(-90 593.274 87.3026)" fill="#5A4D70"/><circle cx="639.187" cy="87.3026" r="2.29552" transform="rotate(-90 639.187 87.3026)" fill="#5A4D70"/><circle cx="685.094" cy="87.3026" r="2.29552" transform="rotate(-90 685.094 87.3026)" fill="#5A4D70"/><circle cx="731.007" cy="87.3026" r="2.29552" transform="rotate(-90 731.007 87.3026)" fill="#5A4D70"/><circle cx="776.917" cy="87.3026" r="2.29552" transform="rotate(-90 776.917 87.3026)" fill="#5A4D70"/><circle cx="822.827" cy="87.3026" r="2.29552" transform="rotate(-90 822.827 87.3026)" fill="#5A4D70"/><circle cx="868.737" cy="87.3026" r="2.29552" transform="rotate(-90 868.737 87.3026)" fill="#5A4D70"/><circle cx="914.647" cy="87.3026" r="2.29552" transform="rotate(-90 914.647 87.3026)" fill="#5A4D70"/><circle cx="960.557" cy="87.3026" r="2.29552" transform="rotate(-90 960.557 87.3026)" fill="#5A4D70"/><circle cx="1006.47" cy="87.3026" r="2.29552" transform="rotate(-90 1006.47 87.3026)" fill="#5A4D70"/><circle cx="1052.38" cy="87.3026" r="2.29552" transform="rotate(-90 1052.38 87.3026)" fill="#5A4D70"/><circle cx="1098.29" cy="87.3026" r="2.29552" transform="rotate(-90 1098.29 87.3026)" fill="#5A4D70"/><circle cx="1144.2" cy="87.3026" r="2.29552" transform="rotate(-90 1144.2 87.3026)" fill="#5A4D70"/><circle cx="1190.11" cy="87.3026" r="2.29552" transform="rotate(-90 1190.11 87.3026)" fill="#5A4D70"/><circle cx="1236.02" cy="87.3026" r="2.29552" transform="rotate(-90 1236.02 87.3026)" fill="#5A4D70"/><circle cx="1281.93" cy="87.3026" r="2.29552" transform="rotate(-90 1281.93 87.3026)" fill="#CBC2FF"/><circle cx="1327.84" cy="87.3026" r="2.29552" transform="rotate(-90 1327.84 87.3026)" fill="#5A4D70"/><circle cx="1373.75" cy="87.3026" r="2.29552" transform="rotate(-90 1373.75 87.3026)" fill="#5A4D70"/><circle cx="1419.66" cy="87.3026" r="2.29552" transform="rotate(-90 1419.66 87.3026)" fill="#5A4D70"/><circle cx="1465.57" cy="87.3026" r="2.29552" transform="rotate(-90 1465.57 87.3026)" fill="#5A4D70"/><circle cx="1511.48" cy="87.3026" r="2.29552" transform="rotate(-90 1511.48 87.3026)" fill="#5A4D70"/><circle cx="1557.39" cy="87.3026" r="2.29552" transform="rotate(-90 1557.39 87.3026)" fill="#5A4D70"/><circle cx="42.3502" cy="41.3923" r="2.29552" transform="rotate(-90 42.3502 41.3923)" fill="#5A4D70"/><circle cx="88.2604" cy="41.3923" r="2.29552" transform="rotate(-90 88.2604 41.3923)" fill="#5A4D70"/><circle cx="134.17" cy="41.3923" r="2.29552" transform="rotate(-90 134.17 41.3923)" fill="#5A4D70"/><circle cx="180.083" cy="41.3923" r="2.29552" transform="rotate(-90 180.083 41.3923)" fill="#5A4D70"/><circle cx="225.99" cy="41.3923" r="2.29552" transform="rotate(-90 225.99 41.3923)" fill="#5A4D70"/><circle cx="271.903" cy="41.3923" r="2.29552" transform="rotate(-90 271.903 41.3923)" fill="#5A4D70"/><circle cx="317.813" cy="41.3923" r="2.29552" transform="rotate(-90 317.813 41.3923)" fill="#5A4D70"/><circle cx="363.723" cy="41.3923" r="2.29552" transform="rotate(-90 363.723 41.3923)" fill="#5A4D70"/><circle cx="409.633" cy="41.3923" r="2.29552" transform="rotate(-90 409.633 41.3923)" fill="#5A4D70"/><circle cx="455.544" cy="41.3923" r="2.29552" transform="rotate(-90 455.544 41.3923)" fill="#5A4D70"/><circle cx="501.454" cy="41.3923" r="2.29552" transform="rotate(-90 501.454 41.3923)" fill="#5A4D70"/><circle cx="547.363" cy="41.3923" r="2.29552" transform="rotate(-90 547.363 41.3923)" fill="#5A4D70"/><circle cx="593.274" cy="41.3923" r="2.29552" transform="rotate(-90 593.274 41.3923)" fill="#5A4D70"/><circle cx="639.187" cy="41.3923" r="2.29552" transform="rotate(-90 639.187 41.3923)" fill="#5A4D70"/><circle cx="685.094" cy="41.3923" r="2.29552" transform="rotate(-90 685.094 41.3923)" fill="#5A4D70"/><circle cx="731.007" cy="41.3923" r="2.29552" transform="rotate(-90 731.007 41.3923)" fill="#5A4D70"/><circle cx="776.917" cy="41.3923" r="2.29552" transform="rotate(-90 776.917 41.3923)" fill="#5A4D70"/><circle cx="822.827" cy="41.3923" r="2.29552" transform="rotate(-90 822.827 41.3923)" fill="#5A4D70"/><circle cx="868.737" cy="41.3923" r="2.29552" transform="rotate(-90 868.737 41.3923)" fill="#5A4D70"/><circle cx="914.647" cy="41.3923" r="2.29552" transform="rotate(-90 914.647 41.3923)" fill="#5A4D70"/><circle cx="960.557" cy="41.3923" r="2.29552" transform="rotate(-90 960.557 41.3923)" fill="#5A4D70"/><circle cx="1006.47" cy="41.3923" r="2.29552" transform="rotate(-90 1006.47 41.3923)" fill="#5A4D70"/><circle cx="1052.38" cy="41.3923" r="2.29552" transform="rotate(-90 1052.38 41.3923)" fill="#5A4D70"/><circle cx="1098.29" cy="41.3923" r="2.29552" transform="rotate(-90 1098.29 41.3923)" fill="#5A4D70"/><circle cx="1144.2" cy="41.3923" r="2.29552" transform="rotate(-90 1144.2 41.3923)" fill="#5A4D70"/><circle cx="1190.11" cy="41.3923" r="2.29552" transform="rotate(-90 1190.11 41.3923)" fill="#5A4D70"/><circle cx="1236.02" cy="41.3923" r="2.29552" transform="rotate(-90 1236.02 41.3923)" fill="#5A4D70"/><circle cx="1281.93" cy="41.3923" r="2.29552" transform="rotate(-90 1281.93 41.3923)" fill="#5A4D70"/><circle cx="1327.84" cy="41.3923" r="2.29552" transform="rotate(-90 1327.84 41.3923)" fill="#5A4D70"/><circle cx="1373.75" cy="41.3923" r="2.29552" transform="rotate(-90 1373.75 41.3923)" fill="#5A4D70"/><circle cx="1419.66" cy="41.3923" r="2.29552" transform="rotate(-90 1419.66 41.3923)" fill="#5A4D70"/><circle cx="1465.57" cy="41.3923" r="2.29552" transform="rotate(-90 1465.57 41.3923)" fill="#5A4D70"/><circle cx="1511.48" cy="41.3923" r="2.29552" transform="rotate(-90 1511.48 41.3923)" fill="#5A4D70"/><circle cx="1557.39" cy="41.3923" r="2.29552" transform="rotate(-90 1557.39 41.3923)" fill="#5A4D70"/></g><defs><clipPath id="a"><path fill="#fff" d="M0 0h1600v1000H0z"/></clipPath></defs></svg>