<svg width="25" height="25" viewBox="0 0 25 25" fill="none" xmlns="http://www.w3.org/2000/svg">
<path d="M18.0021 18.0002V24.3857C18.0021 24.7234 17.7273 24.9981 17.3897 24.9981H0.612406C0.274724 24.9981 0 24.7234 0 24.3857V7.60459C0 7.26691 0.274724 6.99219 0.612406 6.99219H6.99402V17.3897C6.99402 17.7274 7.26875 18.0022 7.60643 18.0022H18.004L18.0021 18.0002Z" fill="#4C00FF"/>
<path d="M24.9981 8.99913C24.9981 14.3734 21.8674 17.9925 18.0002 18.004V11.2389C18.0002 11.0443 17.922 10.8573 17.7847 10.72L14.2762 7.21152C14.1388 7.07415 13.9519 6.99593 13.7573 6.99593H6.99219V0.612406C6.99219 0.274724 7.26691 0 7.60459 0H17.0711C21.5545 0 24.9981 3.6153 24.9981 8.99913Z" fill="#FF5252"/>
<path d="M17.7866 10.7181C17.9239 10.8555 18.0022 11.0425 18.0022 11.2371V18.0022H7.60459C7.26691 18.0022 6.99219 17.7274 6.99219 17.3897V6.99219H13.7573C13.9519 6.99219 14.1388 7.07041 14.2762 7.20777L17.7866 10.7181Z" fill="black"/>
</svg>
