<svg width="556" height="693" viewBox="0 0 556 693" fill="none" xmlns="http://www.w3.org/2000/svg">
<rect x="5" y="5" width="546.62" height="683.013" stroke="#888888" stroke-width="2"/>
<line x1="5.78053" y1="5.37489" x2="551.902" y2="687.278" stroke="#888888" stroke-width="2"/>
<line y1="-1" x2="873.636" y2="-1" transform="matrix(-0.625113 0.780534 0.780534 0.625113 551.121 6)" stroke="#888888" stroke-width="2"/>
<rect x="274" y="9" width="8" height="8" transform="rotate(-90 274 9)" fill="white" stroke="#888888" stroke-width="2"/>
<rect x="274" y="692" width="8" height="8" transform="rotate(-90 274 692)" fill="white" stroke="#888888" stroke-width="2"/>
<rect x="547" y="9" width="8" height="8" transform="rotate(-90 547 9)" fill="white" stroke="#888888" stroke-width="2"/>
<rect x="547" y="350" width="8" height="8" transform="rotate(-90 547 350)" fill="white" stroke="#888888" stroke-width="2"/>
<rect x="547" y="692" width="8" height="8" transform="rotate(-90 547 692)" fill="white" stroke="#888888" stroke-width="2"/>
<rect x="1" y="9" width="8" height="8" transform="rotate(-90 1 9)" fill="white" stroke="#888888" stroke-width="2"/>
<rect x="1" y="350" width="8" height="8" transform="rotate(-90 1 350)" fill="white" stroke="#888888" stroke-width="2"/>
<rect x="1" y="692" width="8" height="8" transform="rotate(-90 1 692)" fill="white" stroke="#888888" stroke-width="2"/>
</svg>
