<svg width="2176" height="2071" viewBox="0 0 2176 2071" fill="none" xmlns="http://www.w3.org/2000/svg">
<g opacity="0.2" filter="url(#filter0_f_1514_2591)">
<path d="M1543.19 1123.78C1475.22 1071.05 1390.36 1047.85 1304.92 1027.49C1295.64 1016.9 1289.46 1003.93 1283.91 990.656C1272.21 962.638 1259.48 938.267 1253.58 907.322C1244.44 859.392 1247.11 806.267 1230.75 760.766C1219.73 730.114 1198.48 706.288 1176.32 684.127C1146.6 654.407 1117.19 625.017 1081.16 602.402C1041.84 577.726 986.985 573.571 937.906 592.395C880.037 614.591 836.693 657.598 794.187 703.226C746.864 754.027 701.583 808.236 672.081 870.194C647.363 922.104 634.346 976.191 620.214 1030.14C615.548 1047.95 613.141 1074.65 600.446 1090.62C596.268 1095.87 590.701 1100.12 586.156 1105.07C579.791 1112 582.801 1117.53 582.727 1124.78C582.501 1147.09 574.841 1169.23 590.085 1186.07C632.761 1233.21 705.275 1237.64 770.039 1236.32C816.958 1235.37 863.483 1231.35 910.702 1226.57C954.227 1222.16 994.308 1221.68 1034.73 1232.66C1094.81 1248.96 1136.44 1309.42 1174.82 1352.78C1218.79 1402.45 1269.42 1460.55 1336.19 1481.49C1372.15 1492.77 1414.09 1494.98 1452.67 1475.17C1488.33 1456.86 1514.02 1421.39 1535.05 1388.48C1572.01 1330.63 1595.35 1265.2 1595.52 1200.93C1595.61 1166.41 1567.08 1142.31 1543.19 1123.78Z" fill="#5800E7"/>
</g>
<defs>
<filter id="filter0_f_1514_2591" x="0.603516" y="0.65625" width="2174.92" height="2069.38" filterUnits="userSpaceOnUse" color-interpolation-filters="sRGB">
<feFlood flood-opacity="0" result="BackgroundImageFix"/>
<feBlend mode="normal" in="SourceGraphic" in2="BackgroundImageFix" result="shape"/>
<feGaussianBlur stdDeviation="290" result="effect1_foregroundBlur_1514_2591"/>
</filter>
</defs>
</svg>
