<svg width="2057" height="1963" viewBox="0 0 2057 1963" fill="none" xmlns="http://www.w3.org/2000/svg">
<g opacity="0.2" filter="url(#filter0_f_1514_2590)">
<path d="M626.396 903.487C686.395 950.035 761.291 970.512 836.707 988.482C844.898 997.827 850.355 1009.27 855.25 1020.99C865.58 1045.72 876.814 1067.23 882.024 1094.55C890.094 1136.85 887.733 1183.74 902.173 1223.9C911.9 1250.96 930.656 1271.99 950.216 1291.55C976.449 1317.78 1002.41 1343.72 1034.21 1363.68C1068.91 1385.46 1117.33 1389.13 1160.65 1372.52C1211.73 1352.92 1249.99 1314.96 1287.5 1274.69C1329.28 1229.85 1369.24 1182 1395.28 1127.32C1417.1 1081.5 1428.59 1033.76 1441.06 986.141C1445.18 970.416 1447.31 946.85 1458.51 932.76C1462.2 928.122 1467.11 924.376 1471.12 920.006C1476.74 913.886 1474.08 909.002 1474.15 902.607C1474.35 882.917 1481.11 863.372 1467.66 848.509C1429.99 806.897 1365.98 802.995 1308.82 804.152C1267.41 804.99 1226.34 808.541 1184.66 812.761C1146.25 816.65 1110.87 817.075 1075.19 807.391C1022.16 792.997 985.42 739.638 951.537 701.361C912.73 657.523 868.045 606.244 809.106 587.757C777.364 577.8 740.348 575.85 706.299 593.335C674.82 609.5 652.143 640.805 633.584 669.855C600.966 720.91 580.36 778.665 580.21 835.394C580.129 865.863 605.316 887.133 626.396 903.487Z" fill="#FF5252"/>
</g>
<defs>
<filter id="filter0_f_1514_2590" x="0.208984" y="0.208984" width="2055.81" height="1962.67" filterUnits="userSpaceOnUse" color-interpolation-filters="sRGB">
<feFlood flood-opacity="0" result="BackgroundImageFix"/>
<feBlend mode="normal" in="SourceGraphic" in2="BackgroundImageFix" result="shape"/>
<feGaussianBlur stdDeviation="290" result="effect1_foregroundBlur_1514_2590"/>
</filter>
</defs>
</svg>
