<svg width="398" height="563" viewBox="0 0 398 563" fill="none" xmlns="http://www.w3.org/2000/svg">
<path fill-rule="evenodd" clip-rule="evenodd" d="M384.733 117.229L338.562 133.719L337.826 131.978C315.365 78.8198 269.773 51.12 211.989 51.12C160.182 51.12 119.763 72.4772 92.2183 111.92C64.6089 151.456 49.8286 209.327 49.8286 282.44V293.326C83.751 231.697 144.906 196.08 218.069 196.08C270.607 196.08 315.587 214.495 347.439 245.962C379.293 277.431 397.908 321.846 397.908 373.64C397.908 483.446 317.192 562.6 207.428 562.6C144.469 562.6 92.5715 535.695 56.4766 486.544C20.4277 437.456 0.228516 366.315 0.228516 277.88C0.228516 193.602 20.6282 124.171 56.8674 75.7565C93.1465 27.2885 145.224 0 208.188 0C294.019 0 361.016 44.4984 384.13 115.38L384.733 117.229ZM49.8286 297.544C49.1501 298.832 48.4834 300.13 47.8286 301.44V282.44C47.8286 135.76 107.109 49.12 211.989 49.12C270.509 49.12 316.868 77.24 339.668 131.2L382.229 116C359.428 46.08 293.309 2 208.188 2C83.5486 2 2.22852 109.92 2.22852 277.88C2.22852 454.2 82.7886 560.6 207.428 560.6C316.109 560.6 395.908 482.32 395.908 373.64C395.908 271.04 322.188 198.08 218.069 198.08C144.336 198.08 83.0112 234.572 49.8286 297.544ZM70.2886 354.366L70.2854 354.378C63.5906 380.413 68.0146 398.952 76.2732 419.227C102.568 480.82 152.013 511.48 210.469 511.48C250.263 511.48 283.937 497.41 307.659 473.501C331.383 449.591 345.269 415.723 345.269 375.92C345.269 337.245 332.136 305.099 309.475 282.625C286.813 260.149 254.473 247.2 215.789 247.2C145.155 247.2 86.0066 289.997 70.2915 354.354L70.2886 354.366ZM74.4285 420C66.0686 399.48 61.5085 380.48 68.3486 353.88C84.3086 288.52 144.349 245.2 215.789 245.2C294.069 245.2 347.269 297.64 347.269 375.92C347.269 456.48 291.029 513.48 210.469 513.48C151.188 513.48 101.029 482.32 74.4285 420Z" fill="url(#paint0_linear_1578_6884)"/>
<defs>
<linearGradient id="paint0_linear_1578_6884" x1="-1381.54" y1="553" x2="1365.62" y2="-85.0041" gradientUnits="userSpaceOnUse">
<stop stop-color="#550CFF"/>
<stop offset="1" stop-color="#936DFF"/>
</linearGradient>
</defs>
</svg>
