<svg width="354" height="392" viewBox="0 0 354 392" fill="none" xmlns="http://www.w3.org/2000/svg">
<path fill-rule="evenodd" clip-rule="evenodd" d="M2.62793 196.56C2.62793 310.56 76.3479 389.6 182.748 389.6C249.628 389.6 302.828 358.44 339.308 299.92L303.588 274.08C303.586 274.083 303.584 274.086 303.582 274.089C303.195 274.631 302.809 275.17 302.423 275.705C267.09 324.667 231.627 344 184.268 344C111.914 344 59.7405 299.154 50.7253 219.84C50.6499 219.176 50.5771 218.509 50.5078 217.84H350.708C351.468 209.48 351.468 202.64 351.468 200.36C351.468 83.32 280.028 2 177.428 2C76.3479 2 2.62793 81.8 2.62793 196.56ZM52.7385 219.84H352.534L352.7 218.021C353.468 209.569 353.468 202.657 353.468 200.36C353.468 141.438 335.482 91.3538 304.426 55.9707C273.353 20.5682 229.29 0 177.428 0C75.0618 0 0.62793 80.8862 0.62793 196.56C0.62793 253.993 19.2031 302.764 51.3254 337.194C83.4578 371.635 129.03 391.6 182.748 391.6C250.366 391.6 304.186 360.042 341.005 300.978L341.993 299.394L303.128 271.279L301.959 272.92C284.204 297.852 266.542 315.096 247.487 326.119C228.455 337.127 207.912 342 184.268 342C148.215 342 117.372 330.741 94.519 309.66C72.0864 288.967 57.1958 258.666 52.7385 219.84ZM302.627 170.24C302.698 170.905 302.765 171.572 302.828 172.24H50.5078C50.5837 171.571 50.6628 170.905 50.7458 170.24C59.8064 97.6006 111.141 47.6 175.908 47.6C245.181 47.6 295.058 99.0736 302.627 170.24ZM300.615 170.24C293.062 100.031 243.926 49.6 175.908 49.6C112.401 49.6 61.8047 98.5507 52.7617 170.24H300.615Z" fill="url(#paint0_linear_1578_6870)"/>
<defs>
<linearGradient id="paint0_linear_1578_6870" x1="-3022.27" y1="-184.69" x2="-1086.07" y2="382" gradientUnits="userSpaceOnUse">
<stop stop-color="#936DFF"/>
<stop offset="1" stop-color="#550DFF"/>
</linearGradient>
</defs>
</svg>
