<svg width="395" height="563" viewBox="0 0 395 563" fill="none" xmlns="http://www.w3.org/2000/svg">
<path fill-rule="evenodd" clip-rule="evenodd" d="M54.8547 521.151C20.1826 494.762 0.295898 457.135 0.295898 412.4C0.295898 377.374 11.2778 347.435 32.5378 323.759C52.636 301.377 81.8071 284.715 119.254 274.561C61.3057 253.268 23.856 204.487 23.856 144.12C23.856 59.0675 97.335 0 197.616 0C297.897 0 371.376 59.0675 371.376 144.12C371.376 204.487 333.926 253.268 275.978 274.561C313.425 284.715 342.596 301.377 362.694 323.759C383.954 347.435 394.936 377.374 394.936 412.4C394.936 457.135 375.049 494.762 340.377 521.151C305.747 547.509 256.458 562.6 197.616 562.6C138.774 562.6 89.4851 547.509 54.8547 521.151ZM272.648 275.747C271.459 275.438 270.261 275.136 269.056 274.84C270.233 274.457 271.402 274.064 272.563 273.659C331.372 253.163 369.376 204.488 369.376 144.12C369.376 60.52 297.176 2 197.616 2C98.0559 2 25.856 60.52 25.856 144.12C25.856 204.488 63.8604 253.163 122.668 273.659C123.83 274.064 124.999 274.457 126.176 274.84C124.97 275.136 123.773 275.438 122.584 275.747C44.3291 296.06 2.2959 344.275 2.2959 412.4C2.2959 500.56 80.5759 560.6 197.616 560.6C314.656 560.6 392.936 500.56 392.936 412.4C392.936 344.275 350.903 296.06 272.648 275.747ZM303.993 484.683C328.736 467.009 342.296 441.396 342.296 409.36C342.296 376.94 328.542 350.749 303.691 332.6C278.774 314.402 242.564 304.2 197.616 304.2C152.667 304.2 116.458 314.402 91.5405 332.6C66.6899 350.749 52.936 376.94 52.936 409.36C52.936 441.396 66.4956 467.009 91.2385 484.683C116.057 502.41 152.27 512.24 197.616 512.24C242.962 512.24 279.175 502.41 303.993 484.683ZM197.616 253.08C265.937 253.08 319.496 205.848 319.496 147.16C319.496 118.524 307.245 94.3929 285.952 77.3774C264.626 60.3349 234.127 50.36 197.616 50.36C161.105 50.36 130.606 60.3349 109.28 77.3774C87.9868 94.3929 75.7361 118.524 75.7361 147.16C75.7361 205.848 129.295 253.08 197.616 253.08ZM344.296 409.36C344.296 474.72 288.816 514.24 197.616 514.24C106.416 514.24 50.936 474.72 50.936 409.36C50.936 343.24 107.176 302.2 197.616 302.2C288.056 302.2 344.296 343.24 344.296 409.36ZM321.496 147.16C321.496 207.2 266.776 255.08 197.616 255.08C128.456 255.08 73.7361 207.2 73.7361 147.16C73.7361 88.64 123.896 48.36 197.616 48.36C271.336 48.36 321.496 88.64 321.496 147.16Z" fill="url(#paint0_linear_1578_6882)"/>
<defs>
<linearGradient id="paint0_linear_1578_6882" x1="-2109.54" y1="553" x2="637.618" y2="-85.004" gradientUnits="userSpaceOnUse">
<stop stop-color="#550CFF"/>
<stop offset="1" stop-color="#936DFF"/>
</linearGradient>
</defs>
</svg>
