<svg width="377" height="548" viewBox="0 0 377 548" fill="none" xmlns="http://www.w3.org/2000/svg">
<path fill-rule="evenodd" clip-rule="evenodd" d="M2.54688 546H183.427C301.987 546 374.187 488.24 374.187 395.52C374.187 326.591 334.302 279.82 261.815 261.033C260.772 260.763 259.723 260.498 258.667 260.24C259.664 259.804 260.652 259.365 261.633 258.921C313.767 235.324 343.787 199.105 343.787 140.92C343.787 55.7996 279.187 2.59961 165.947 2.59961H2.54688V546ZM264.682 259.723C289.426 248.214 309.219 233.722 323.065 215.171C337.889 195.308 345.787 170.934 345.787 140.92C345.787 97.8043 329.4 62.6233 298.572 38.2702C267.802 13.9636 222.851 0.599609 165.947 0.599609H0.546875V548H183.427C243.006 548 291.182 533.489 324.509 507.098C357.888 480.664 376.187 442.45 376.187 395.52C376.187 360.148 365.796 330.407 345.875 307.197C326.958 285.159 299.57 269.149 264.682 259.723ZM325.547 395.52C325.547 463.92 274.627 498.88 181.907 498.88H51.1869V287.6H181.907C274.627 287.6 325.547 327.12 325.547 395.52ZM53.1869 289.6H181.907C228.022 289.6 263.443 299.433 287.289 317.504C311.054 335.513 323.547 361.872 323.547 395.52C323.547 429.155 311.066 454.35 287.338 471.22C263.498 488.168 228.068 496.88 181.907 496.88H53.1869V289.6ZM295.147 141.68C295.147 204.76 248.027 240.48 164.427 240.48H51.1869V49.7196H164.427C250.307 49.7196 295.147 81.6396 295.147 141.68ZM53.1869 51.7196H164.427C207.172 51.7196 239.374 59.6726 260.839 74.8188C282.189 89.8841 293.147 112.228 293.147 141.68C293.147 172.665 281.606 196.744 259.93 213.14C238.174 229.596 205.982 238.48 164.427 238.48H53.1869V51.7196Z" fill="url(#paint0_linear_1578_6875)"/>
<defs>
<linearGradient id="paint0_linear_1578_6875" x1="-917.267" y1="-20.6898" x2="1018.93" y2="546" gradientUnits="userSpaceOnUse">
<stop stop-color="#936DFF"/>
<stop offset="1" stop-color="#550DFF"/>
</linearGradient>
</defs>
</svg>
