<svg width="358" height="571" viewBox="0 0 358 571" fill="none" xmlns="http://www.w3.org/2000/svg">
<path fill-rule="evenodd" clip-rule="evenodd" d="M306.148 0.400391H357.268V563H308.473L307.056 500.646C277.526 544.313 230.549 570.6 174.388 570.6C75.0449 570.6 0.62793 489.695 0.62793 374.8C0.62793 259.905 75.0449 179 174.388 179C230.445 179 276.662 204.492 306.148 247.975V0.400391ZM308.148 254.72C307.491 253.665 306.824 252.62 306.148 251.585C277.118 207.129 230.833 181 174.388 181C76.3479 181 2.62793 260.8 2.62793 374.8C2.62793 488.8 76.3479 568.6 174.388 568.6C230.878 568.6 277.918 541.703 306.976 497.151C307.629 496.149 308.273 495.139 308.908 494.12L310.428 561H355.268V2.40039H308.148V254.72ZM270.261 480.639C292.785 455.032 306.148 418.476 306.148 374.8C306.148 331.125 292.785 294.569 270.261 268.961C247.753 243.371 216.003 228.6 178.948 228.6C141.893 228.6 110.143 243.371 87.6348 268.961C65.1111 294.569 51.748 331.125 51.748 374.8C51.748 418.476 65.1111 455.032 87.6348 480.639C110.143 506.23 141.893 521 178.948 521C216.003 521 247.753 506.23 270.261 480.639ZM308.148 374.8C308.148 462.96 254.188 523 178.948 523C103.708 523 49.748 462.96 49.748 374.8C49.748 286.64 103.708 226.6 178.948 226.6C254.188 226.6 308.148 286.64 308.148 374.8Z" fill="url(#paint0_linear_1578_6896)"/>
<defs>
<linearGradient id="paint0_linear_1578_6896" x1="-3022.31" y1="-5.68977" x2="-1079.86" y2="565.015" gradientUnits="userSpaceOnUse">
<stop stop-color="#936DFF"/>
<stop offset="1" stop-color="#550DFF"/>
</linearGradient>
</defs>
</svg>
