<svg width="358" height="571" viewBox="0 0 358 571" fill="none" xmlns="http://www.w3.org/2000/svg">
<path fill-rule="evenodd" clip-rule="evenodd" d="M49.3868 563H0.591797V0.400391H51.7118V247.975C81.1975 204.492 127.415 179 183.472 179C282.815 179 357.232 259.905 357.232 374.8C357.232 489.695 282.815 570.6 183.472 570.6C127.311 570.6 80.3339 544.313 50.8041 500.646L49.3868 563ZM48.9518 494.12C49.5865 495.139 50.2305 496.149 50.8834 497.151C79.9412 541.703 126.981 568.6 183.472 568.6C281.512 568.6 355.232 488.8 355.232 374.8C355.232 260.8 281.512 181 183.472 181C127.026 181 80.7421 207.129 51.7118 251.585C51.0358 252.62 50.369 253.665 49.7118 254.72V2.40039H2.5918V561H47.4318L48.9518 494.12ZM270.225 480.639C292.749 455.032 306.112 418.476 306.112 374.8C306.112 331.125 292.749 294.569 270.225 268.961C247.717 243.371 215.967 228.6 178.912 228.6C141.856 228.6 110.107 243.371 87.5985 268.961C65.075 294.569 51.7118 331.125 51.7118 374.8C51.7118 418.476 65.075 455.032 87.5985 480.639C110.107 506.23 141.856 521 178.912 521C215.967 521 247.717 506.23 270.225 480.639ZM308.112 374.8C308.112 462.96 254.152 523 178.912 523C103.672 523 49.7118 462.96 49.7118 374.8C49.7118 286.64 103.672 226.6 178.912 226.6C254.152 226.6 308.112 286.64 308.112 374.8Z" fill="url(#paint0_linear_1578_6874)"/>
<defs>
<linearGradient id="paint0_linear_1578_6874" x1="-1324.27" y1="-5.68977" x2="611.928" y2="561" gradientUnits="userSpaceOnUse">
<stop stop-color="#936DFF"/>
<stop offset="1" stop-color="#550DFF"/>
</linearGradient>
</defs>
</svg>
