<svg width="366" height="555" viewBox="0 0 366 555" fill="none" xmlns="http://www.w3.org/2000/svg">
<path fill-rule="evenodd" clip-rule="evenodd" d="M5.87213 504.178L6.59784 503.578C9.60559 501.092 12.6765 498.555 15.8054 495.97C71.9912 449.554 146.868 387.697 210.152 325.852C246.96 289.422 269.407 261.845 282.662 237.591C295.878 213.409 299.992 192.466 299.992 169.2C299.992 129.436 285.757 99.9853 263.527 80.4524C241.259 60.886 210.791 51.12 178.112 51.12C141.715 51.12 110.879 63.3057 88.3942 84.9509C65.9032 106.602 51.6337 137.848 48.626 176.196L48.4601 178.311L0.470703 171.692L0.554199 169.869C5.16321 69.2382 78.2455 0 178.112 0C229.104 0 272.747 17.067 303.657 46.5324C334.574 76.0047 352.632 117.77 352.632 166.92C352.632 235.388 317.943 291.362 245.616 360.644L245.606 360.653L245.597 360.662C190.107 412.453 133.903 459.919 84.0104 501.644L365.552 503.896V555H5.87213V504.178ZM78.5521 503.6C79.3405 502.941 80.1305 502.281 80.9221 501.619C131.26 459.533 188.115 411.576 244.232 359.2C316.432 290.04 350.632 234.56 350.632 166.92C350.632 69.64 279.192 2 178.112 2C79.3121 2 7.11212 70.4 2.55212 169.96L46.6321 176.04C46.6321 176.04 46.6321 176.04 46.6321 176.04C46.6844 175.373 46.7402 174.707 46.7993 174.044C53.6036 97.673 105.027 49.12 178.112 49.12C244.232 49.12 301.992 88.64 301.992 169.2C301.992 216.32 285.272 254.32 211.552 327.28C148.206 389.187 73.2689 451.093 17.093 497.501C13.9592 500.09 10.8839 502.63 7.87213 505.12V553H363.552V505.88L78.5521 503.6Z" fill="url(#paint0_linear_1578_6888)"/>
<defs>
<linearGradient id="paint0_linear_1578_6888" x1="244.463" y1="553" x2="2991.62" y2="-85.0041" gradientUnits="userSpaceOnUse">
<stop stop-color="#550CFF"/>
<stop offset="1" stop-color="#936DFF"/>
</linearGradient>
</defs>
</svg>
