<svg width="399" height="563" viewBox="0 0 399 563" fill="none" xmlns="http://www.w3.org/2000/svg">
<path fill-rule="evenodd" clip-rule="evenodd" d="M13.8191 445.371L59.9905 428.881L60.7258 430.622C83.1873 483.78 128.779 511.48 186.564 511.48C238.371 511.48 278.79 490.123 306.334 450.68C333.943 411.144 348.724 353.272 348.724 280.16V269.273C314.802 330.902 253.646 366.52 180.484 366.52C127.945 366.52 82.9651 348.105 51.113 316.638C19.2595 285.169 0.643555 240.754 0.643555 188.96C0.643555 79.154 81.3606 0 191.124 0C254.083 0 305.98 26.9055 342.076 76.0562C378.124 125.144 398.324 196.285 398.324 284.72C398.324 368.998 377.924 438.429 341.685 486.844C305.406 535.311 253.328 562.6 190.364 562.6C104.533 562.6 37.5356 518.102 14.4221 447.22L13.8191 445.371ZM348.724 265.056C315.541 328.028 254.216 364.52 180.484 364.52C76.3635 364.52 2.64355 291.56 2.64355 188.96C2.64355 80.28 82.4436 2 191.124 2C315.764 2 396.324 108.4 396.324 284.72C396.324 452.68 315.004 560.6 190.364 560.6C105.244 560.6 39.1235 516.52 16.3235 446.6L58.8835 431.4C58.8835 431.401 58.8843 431.401 58.8843 431.402C81.6846 485.361 128.044 513.48 186.564 513.48C291.444 513.48 350.724 426.84 350.724 280.16V261.16C350.069 262.47 349.402 263.768 348.724 265.056ZM328.264 208.234L328.267 208.222C334.961 182.186 330.537 163.648 322.278 143.372C295.984 81.7792 246.538 51.12 188.083 51.12C148.289 51.12 114.616 65.1896 90.8933 89.0986C67.1697 113.009 53.2837 146.877 53.2837 186.68C53.2837 225.355 66.4163 257.501 89.0769 279.975C111.739 302.451 144.08 315.4 182.764 315.4C253.397 315.4 312.546 272.602 328.261 208.246L328.264 208.234ZM324.124 142.6C332.484 163.12 337.044 182.12 330.204 208.72C314.244 274.08 254.204 317.4 182.764 317.4C104.484 317.4 51.2837 264.96 51.2837 186.68C51.2837 106.12 107.524 49.12 188.083 49.12C247.364 49.12 297.524 80.28 324.124 142.6Z" fill="url(#paint0_linear_1578_6881)"/>
<defs>
<linearGradient id="paint0_linear_1578_6881" x1="-2521.54" y1="553" x2="225.618" y2="-85.0041" gradientUnits="userSpaceOnUse">
<stop stop-color="#550CFF"/>
<stop offset="1" stop-color="#936DFF"/>
</linearGradient>
</defs>
</svg>
