<svg width="357" height="392" viewBox="0 0 357 392" fill="none" xmlns="http://www.w3.org/2000/svg">
<path fill-rule="evenodd" clip-rule="evenodd" d="M2.08789 195.8C2.08789 309.8 75.8079 389.6 173.848 389.6C230.338 389.6 277.378 362.702 306.436 318.15C307.089 317.149 307.733 316.139 308.368 315.12L309.888 382H354.728V9.60001H307.608V75.72C306.951 74.6649 306.284 73.6197 305.608 72.5844C276.578 28.1288 230.293 2 173.848 2C75.8079 2 2.08789 81.8 2.08789 195.8ZM305.608 68.9745C276.122 25.4921 229.905 0 173.848 0C74.5049 0 0.0878906 80.9049 0.0878906 195.8C0.0878906 310.695 74.5049 391.6 173.848 391.6C230.009 391.6 276.986 365.313 306.516 321.645L307.933 384H356.728V7.60001H305.608V68.9745ZM307.608 195.8C307.608 283.96 253.648 344 178.408 344C103.168 344 49.2079 283.96 49.2079 195.8C49.2079 107.64 103.168 47.6 178.408 47.6C253.648 47.6 307.608 107.64 307.608 195.8ZM269.721 301.639C292.245 276.031 305.608 239.476 305.608 195.8C305.608 152.124 292.245 115.569 269.721 89.9609C247.213 64.3703 215.463 49.6 178.408 49.6C141.353 49.6 109.603 64.3703 87.0946 89.9609C64.571 115.569 51.2079 152.124 51.2079 195.8C51.2079 239.476 64.571 276.031 87.0946 301.639C109.603 327.23 141.353 342 178.408 342C215.463 342 247.213 327.23 269.721 301.639Z" fill="url(#paint0_linear_1578_6876)"/>
<defs>
<linearGradient id="paint0_linear_1578_6876" x1="-507.267" y1="-184.69" x2="1428.93" y2="382" gradientUnits="userSpaceOnUse">
<stop stop-color="#936DFF"/>
<stop offset="1" stop-color="#550DFF"/>
</linearGradient>
</defs>
</svg>
