<svg width="467" height="563" viewBox="0 0 467 563" fill="none" xmlns="http://www.w3.org/2000/svg">
<path fill-rule="evenodd" clip-rule="evenodd" d="M2.50977 281.68C2.50977 442.8 108.15 560.6 253.31 560.6C341.47 560.6 418.23 516.52 463.83 439L425.07 412.4C424.724 412.972 424.376 413.542 424.027 414.11C384.524 478.383 326.384 513.48 253.31 513.48C134.75 513.48 51.1497 416.2 51.1497 281.68C51.1497 146.4 134.75 49.12 253.31 49.12C326.384 49.12 384.524 84.2171 424.027 148.49C424.376 149.058 424.724 149.628 425.07 150.2L463.83 123.6C418.23 46.08 341.47 2 253.31 2C108.15 2 2.50977 119.8 2.50977 281.68ZM466.499 124.194L424.454 153.048L423.358 151.235C384.164 86.4136 326.262 51.12 253.31 51.12C136.114 51.12 53.1497 147.226 53.1497 281.68C53.1497 415.37 136.11 511.48 253.31 511.48C326.262 511.48 384.164 476.186 423.358 411.365L424.454 409.552L466.499 438.406L465.554 440.014C419.6 518.135 342.189 562.6 253.31 562.6C106.849 562.6 0.509766 443.698 0.509766 281.68C0.509766 118.906 106.846 0 253.31 0C342.189 0 419.6 44.4646 465.554 122.586L466.499 124.194Z" fill="url(#paint0_linear_1578_6873)"/>
<defs>
<linearGradient id="paint0_linear_1578_6873" x1="-1711.27" y1="-13.6898" x2="224.928" y2="553" gradientUnits="userSpaceOnUse">
<stop stop-color="#936DFF"/>
<stop offset="1" stop-color="#550DFF"/>
</linearGradient>
</defs>
</svg>
