<svg width="392" height="556" viewBox="0 0 392 556" fill="none" xmlns="http://www.w3.org/2000/svg">
<path fill-rule="evenodd" clip-rule="evenodd" d="M2.7113 407.68C20.1913 497.36 96.9513 553.6 195.751 553.6C309.751 553.6 389.551 476.08 389.551 368.16C389.551 260.24 308.991 185.76 201.071 185.76C154.336 185.76 108.324 199.518 77.8793 222.793C77.1339 223.363 76.3978 223.938 75.6713 224.52L95.4313 49.7196H362.191V2.59961H55.1514L24.7513 267.84L58.1913 289.12C96.1913 251.88 144.831 231.36 196.511 231.36C280.111 231.36 340.911 286.08 340.911 367.4C340.911 447.2 283.151 506.48 191.951 506.48C115.2 506.48 61.5444 464.015 47.948 399.001C47.8118 398.349 47.6794 397.696 47.5513 397.04L2.7113 407.68ZM97.218 51.7196H364.191V0.599609H53.3674L22.6218 268.855L58.4572 291.659L59.5912 290.548C97.2358 253.656 145.38 233.36 196.511 233.36C237.874 233.36 273.467 246.892 298.7 270.349C323.92 293.795 338.911 327.264 338.911 367.4C338.911 406.802 324.661 441.035 299.247 465.422C273.83 489.81 237.11 504.48 191.951 504.48C115.273 504.48 62.2295 461.729 49.5142 396.656L49.115 394.613L0.380859 406.177L0.748291 408.062C18.4409 498.834 96.158 555.6 195.751 555.6C253.212 555.6 302.176 536.056 336.787 502.792C371.403 469.522 391.551 422.631 391.551 368.16C391.551 259.049 310.008 183.76 201.071 183.76C154.774 183.76 109.052 197.155 78.1886 220.056L97.218 51.7196Z" fill="url(#paint0_linear_1578_6885)"/>
<defs>
<linearGradient id="paint0_linear_1578_6885" x1="-962.537" y1="546" x2="1784.62" y2="-92.004" gradientUnits="userSpaceOnUse">
<stop stop-color="#550CFF"/>
<stop offset="1" stop-color="#936DFF"/>
</linearGradient>
</defs>
</svg>
