<svg width="437" height="563" viewBox="0 0 437 563" fill="none" xmlns="http://www.w3.org/2000/svg">
<path fill-rule="evenodd" clip-rule="evenodd" d="M61.2992 484.495C22.9686 435.049 0.839844 364.857 0.839844 281.68C0.839844 198.503 22.9684 128.123 61.2969 78.4876C99.6534 28.816 154.185 0 218.68 0C283.175 0 337.706 28.816 376.063 78.4876C414.391 128.123 436.52 198.503 436.52 281.68C436.52 364.857 414.391 435.049 376.061 484.495C337.702 533.978 283.17 562.6 218.68 562.6C154.19 562.6 99.658 533.978 61.2992 484.495ZM338.277 448.282C367.229 408.049 383.88 350.543 383.88 281.68C383.88 212.053 367.227 154.358 338.277 114.128C309.362 73.9489 268.147 51.12 218.68 51.12C169.213 51.12 127.997 73.9489 99.0832 114.128C70.1327 154.358 53.4798 212.053 53.4798 281.68C53.4798 350.543 70.1308 408.049 99.0832 448.282C128.001 488.466 169.218 511.48 218.68 511.48C268.142 511.48 309.359 488.466 338.277 448.282ZM2.83984 281.68C2.83984 447.36 90.9999 560.6 218.68 560.6C346.36 560.6 434.52 447.36 434.52 281.68C434.52 116 346.36 2 218.68 2C90.9999 2 2.83984 116 2.83984 281.68ZM385.88 281.68C385.88 420 319 513.48 218.68 513.48C118.36 513.48 51.4798 420 51.4798 281.68C51.4798 141.84 118.36 49.12 218.68 49.12C319 49.12 385.88 141.84 385.88 281.68Z" fill="url(#paint0_linear_1578_6890)"/>
<defs>
<linearGradient id="paint0_linear_1578_6890" x1="872.463" y1="553" x2="3619.62" y2="-85.0041" gradientUnits="userSpaceOnUse">
<stop stop-color="#550CFF"/>
<stop offset="1" stop-color="#936DFF"/>
</linearGradient>
</defs>
</svg>
