<svg width="391" height="563" viewBox="0 0 391 563" fill="none" xmlns="http://www.w3.org/2000/svg">
<path fill-rule="evenodd" clip-rule="evenodd" d="M0.362305 410.845L49.72 400.151L50.1753 402.055C58.4368 436.603 76.0536 463.915 101.567 482.606C127.093 501.307 160.665 511.48 200.99 511.48C240.962 511.48 275.281 501.484 299.552 483.561C323.771 465.676 338.07 439.849 338.07 407.84C338.07 377.311 325.259 352.264 301.364 334.784C277.401 317.255 242.145 307.24 197.19 307.24H147.31V256.88H185.03C224.578 256.88 258.31 245.956 282.109 227.01C305.874 208.092 319.83 181.11 319.83 148.68C319.83 118.479 307.925 94.3651 287.142 77.7572C266.309 61.11 236.392 51.8797 200.23 51.8797C159.928 51.8797 126.209 63.1796 102.892 82.3932C79.6101 101.578 66.5911 128.727 67.7089 160.77L67.79 163.096L18.0951 157.298L18.1101 155.503C18.495 109.706 37.3693 70.9668 69.2554 43.7046C101.12 16.4608 145.875 0.759766 197.95 0.759766C248.871 0.759766 292.48 15.6925 323.397 41.5045C354.339 67.3376 372.47 103.996 372.47 147.16C372.47 201.907 340.393 251.45 284.297 277.488C350.317 297.764 390.71 347.661 390.71 410.88C390.71 499.774 309.579 562.6 204.03 562.6C99.1995 562.6 14.5254 501.331 0.654175 412.709L0.362305 410.845ZM281.53 278.744C280.529 278.449 279.523 278.161 278.51 277.88C279.476 277.466 280.434 277.045 281.386 276.618C338.124 251.143 370.47 201.724 370.47 147.16C370.47 62.0398 299.03 2.75977 197.95 2.75977C94.5901 2.75977 20.8701 65.0798 20.1101 155.52L65.7101 160.84C65.6865 160.164 65.6691 159.491 65.6578 158.82C64.5792 94.5423 119.75 49.8797 200.23 49.8797C273.19 49.8797 321.83 87.1198 321.83 148.68C321.83 214.8 264.83 258.88 185.03 258.88H149.31V305.24H197.19C287.63 305.24 340.07 345.52 340.07 407.84C340.07 473.2 281.55 513.48 200.99 513.48C119.67 513.48 64.9501 472.44 48.2301 402.52L48.2288 402.52L2.63013 412.4C16.3101 499.8 99.91 560.6 204.03 560.6C308.91 560.6 388.71 498.28 388.71 410.88C388.71 347.985 348.139 298.368 281.53 278.744Z" fill="url(#paint0_linear_1578_6887)"/>
<defs>
<linearGradient id="paint0_linear_1578_6887" x1="-130.537" y1="553" x2="2616.62" y2="-85.0041" gradientUnits="userSpaceOnUse">
<stop stop-color="#550CFF"/>
<stop offset="1" stop-color="#936DFF"/>
</linearGradient>
</defs>
</svg>
