<svg width="451" height="548" viewBox="0 0 451 548" fill="none" xmlns="http://www.w3.org/2000/svg">
<path fill-rule="evenodd" clip-rule="evenodd" d="M2.82617 546H191.306C342.546 546 448.186 433.52 448.186 274.68C448.186 115.08 342.546 2.59961 191.306 2.59961H2.82617V546ZM191.306 498.88H51.4663V49.7196H191.306C315.946 49.7196 399.546 141.68 399.546 274.68C399.546 406.92 315.186 498.88 191.306 498.88ZM53.4663 51.7196H191.306C253.109 51.7196 304.621 74.5054 340.695 113.679C376.782 152.868 397.546 208.598 397.546 274.68C397.546 340.374 376.597 395.914 340.413 435.011C304.242 474.095 252.727 496.88 191.306 496.88H53.4663V51.7196ZM0.826172 548V0.599609H191.306C267.444 0.599609 332.201 28.9233 377.917 77.4177C423.623 125.903 450.186 194.434 450.186 274.68C450.186 354.547 423.622 422.888 377.915 471.278C332.2 519.676 267.444 548 191.306 548H0.826172Z" fill="url(#paint0_linear_1578_6871)"/>
<defs>
<linearGradient id="paint0_linear_1578_6871" x1="-2546.27" y1="-20.6898" x2="-610.072" y2="546" gradientUnits="userSpaceOnUse">
<stop stop-color="#936DFF"/>
<stop offset="1" stop-color="#550DFF"/>
</linearGradient>
</defs>
</svg>
