<svg width="338" height="392" viewBox="0 0 338 392" fill="none" xmlns="http://www.w3.org/2000/svg">
<path fill-rule="evenodd" clip-rule="evenodd" d="M2.09375 195.8C2.09375 309.8 75.0537 389.6 178.414 389.6C252.894 389.6 303.054 356.16 334.974 288.52L293.936 267.241L293.934 267.24C293.638 267.841 293.341 268.437 293.042 269.031C267.273 320.234 231.756 344 178.414 344C103.174 344 49.2139 283.96 49.2139 195.8C49.2139 107.64 103.174 47.6 178.414 47.6C231.756 47.6 267.273 71.3661 293.042 122.569C293.341 123.163 293.638 123.759 293.934 124.36L293.936 124.359L334.974 103.08C303.054 35.44 252.894 2 178.414 2C75.0537 2 2.09375 81.8 2.09375 195.8ZM337.605 103.969L293.042 127.075L292.14 125.244C279.324 99.2367 264.138 80.3627 245.607 67.9778C227.093 55.6037 205.079 49.6 178.414 49.6C141.358 49.6 109.609 64.3703 87.1006 89.9609C64.5769 115.569 51.2139 152.124 51.2139 195.8C51.2139 239.476 64.5769 276.031 87.1006 301.639C109.609 327.23 141.358 342 178.414 342C205.079 342 227.093 335.996 245.607 323.622C264.138 311.237 279.324 292.363 292.14 266.356L293.042 264.525L337.605 287.631L336.782 289.374C320.703 323.446 299.964 349.039 273.745 366.101C247.52 383.167 215.962 391.6 178.414 391.6C126.192 391.6 81.5681 371.428 50.0154 336.797C18.4746 302.179 0.09375 253.227 0.09375 195.8C0.09375 138.373 18.4746 89.421 50.0154 54.803C81.5681 20.172 126.192 0 178.414 0C215.962 0 247.52 8.43317 273.745 25.4987C299.964 42.5608 320.703 68.1537 336.782 102.226L337.605 103.969Z" fill="url(#paint0_linear_1578_6872)"/>
<defs>
<linearGradient id="paint0_linear_1578_6872" x1="-2186.27" y1="-184.69" x2="-250.072" y2="382" gradientUnits="userSpaceOnUse">
<stop stop-color="#936DFF"/>
<stop offset="1" stop-color="#550DFF"/>
</linearGradient>
</defs>
</svg>
