<?xml version="1.0" encoding="UTF-8"?>
<svg width="19px" height="21px" viewBox="0 0 19 21" version="1.1" xmlns="http://www.w3.org/2000/svg" xmlns:xlink="http://www.w3.org/1999/xlink">
    <!-- Generator: Sketch 59.1 (86144) - https://sketch.com -->
    <title>plus-arrow-morph</title>
    <desc>Created with Sketch.</desc>
    <g id="Page-1" stroke="none" stroke-width="1" fill="none" fill-rule="evenodd">
        <g id="plus-arrow-morph" fill="#4462C9" fill-rule="nonzero" stroke="#4462C9">
            <g id="arrow" transform="translate(1.000000, 1.000000)">
                <g id="Page-1">
                    <g id="arrow">
                        <g id="Group" transform="translate(0.000000, 0.252103)">
                            <path d="M7.8802732,0.321387352 L0.370391775,7.43602767 C-0.121817711,7.85144269 -0.111948146,8.6506087 0.331577546,9.11764427 C0.775099285,9.58467984 1.56054593,9.62301976 2.00082656,9.15282213 L7.50971984,3.94037945 L7.50971984,17.7867352 C7.50971984,18.4415968 8.04062893,18.9725059 8.69549059,18.9725059 C9.35039178,18.9725059 9.88126134,18.4415968 9.88126134,17.7867352 L9.88126134,3.94037945 L15.3901546,9.15282213 C15.8304353,9.62294071 16.6192258,9.58444269 17.0627515,9.11724901 C17.5062732,8.65021344 17.5082021,7.83970356 17.0205894,7.43575099 L9.51070798,0.321146245 C9.28074751,0.104735178 9.01251035,0.00316205534 8.69549059,0 C8.41290956,0.0113873518 8.08626925,0.127636364 7.8802732,0.321387352 Z" id="Shape"></path>
                        </g>
                    </g>
                </g>
            </g>
        </g>
    </g>
</svg>